<svg xmlns="http://www.w3.org/2000/svg" xmlns:xlink="http://www.w3.org/1999/xlink" width="1080" zoomAndPan="magnify" viewBox="0 0 810 809.999993" height="1080" preserveAspectRatio="xMidYMid meet" version="1.0"><defs><clipPath id="f01df76b4e"><path d="M 156.78125 161.75 L 655.703125 161.75 L 655.703125 666 L 156.78125 666 Z M 156.78125 161.75 " clip-rule="nonzero"/></clipPath><clipPath id="2da33c6705"><path d="M 195.03125 161.75 L 617.453125 161.75 C 627.597656 161.75 637.324219 165.78125 644.5 172.953125 C 651.671875 180.128906 655.703125 189.855469 655.703125 200 L 655.703125 627.390625 C 655.703125 637.535156 651.671875 647.265625 644.5 654.4375 C 637.324219 661.609375 627.597656 665.640625 617.453125 665.640625 L 195.03125 665.640625 C 184.886719 665.640625 175.160156 661.609375 167.984375 654.4375 C 160.8125 647.265625 156.78125 637.535156 156.78125 627.390625 L 156.78125 200 C 156.78125 189.855469 160.8125 180.128906 167.984375 172.953125 C 175.160156 165.78125 184.886719 161.75 195.03125 161.75 Z M 195.03125 161.75 " clip-rule="nonzero"/></clipPath><clipPath id="aee70932dc"><path d="M 180.882812 180.882812 L 391 180.882812 L 391 450 L 180.882812 450 Z M 180.882812 180.882812 " clip-rule="nonzero"/></clipPath><clipPath id="27c0e8f484"><path d="M 419 360 L 629.382812 360 L 629.382812 629.382812 L 419 629.382812 Z M 419 360 " clip-rule="nonzero"/></clipPath></defs><path fill="#ffc876" d="M 202.5 0 L 607.5 0 C 610.8125 0 614.125 0.0820312 617.4375 0.242188 C 620.746094 0.40625 624.050781 0.648438 627.347656 0.976562 C 630.648438 1.300781 633.933594 1.707031 637.210938 2.191406 C 640.492188 2.679688 643.753906 3.246094 647.003906 3.890625 C 650.257812 4.539062 653.488281 5.261719 656.703125 6.070312 C 659.917969 6.875 663.109375 7.757812 666.28125 8.71875 C 669.453125 9.679688 672.601562 10.722656 675.71875 11.835938 C 678.839844 12.953125 681.929688 14.144531 684.992188 15.414062 C 688.054688 16.683594 691.082031 18.023438 694.078125 19.441406 C 697.074219 20.859375 700.035156 22.347656 702.957031 23.910156 C 705.878906 25.472656 708.761719 27.105469 711.605469 28.808594 C 714.449219 30.515625 717.246094 32.285156 720.003906 34.128906 C 722.757812 35.96875 725.46875 37.875 728.128906 39.851562 C 730.789062 41.824219 733.402344 43.863281 735.964844 45.964844 C 738.527344 48.066406 741.035156 50.230469 743.492188 52.457031 C 745.945312 54.683594 748.34375 56.96875 750.6875 59.3125 C 753.03125 61.652344 755.316406 64.054688 757.542969 66.507812 C 759.769531 68.964844 761.933594 71.472656 764.035156 74.035156 C 766.136719 76.597656 768.175781 79.210938 770.148438 81.871094 C 772.125 84.53125 774.03125 87.242188 775.871094 89.996094 C 777.714844 92.753906 779.484375 95.550781 781.191406 98.394531 C 782.894531 101.238281 784.527344 104.121094 786.089844 107.042969 C 787.652344 109.964844 789.140625 112.925781 790.558594 115.921875 C 791.976562 118.914062 793.316406 121.945312 794.585938 125.007812 C 795.855469 128.070312 797.046875 131.160156 798.164062 134.28125 C 799.277344 137.398438 800.316406 140.546875 801.28125 143.71875 C 802.242188 146.890625 803.125 150.082031 803.929688 153.296875 C 804.738281 156.511719 805.460938 159.742188 806.109375 162.996094 C 806.753906 166.246094 807.320312 169.507812 807.808594 172.785156 C 808.292969 176.066406 808.699219 179.351562 809.023438 182.652344 C 809.347656 185.949219 809.59375 189.253906 809.757812 192.5625 C 809.917969 195.875 810 199.1875 810 202.5 L 810 607.5 C 810 610.8125 809.917969 614.125 809.757812 617.4375 C 809.59375 620.746094 809.347656 624.050781 809.023438 627.347656 C 808.699219 630.648438 808.292969 633.933594 807.808594 637.210938 C 807.320312 640.492188 806.753906 643.753906 806.109375 647.003906 C 805.460938 650.257812 804.738281 653.488281 803.929688 656.703125 C 803.125 659.917969 802.242188 663.109375 801.28125 666.28125 C 800.316406 669.453125 799.277344 672.601562 798.164062 675.71875 C 797.046875 678.839844 795.855469 681.929688 794.585938 684.992188 C 793.316406 688.054688 791.976562 691.082031 790.558594 694.078125 C 789.140625 697.074219 787.652344 700.035156 786.089844 702.957031 C 784.527344 705.878906 782.894531 708.761719 781.191406 711.605469 C 779.484375 714.449219 777.714844 717.246094 775.871094 720.003906 C 774.03125 722.757812 772.125 725.46875 770.148438 728.128906 C 768.175781 730.789062 766.136719 733.402344 764.035156 735.964844 C 761.933594 738.527344 759.769531 741.035156 757.542969 743.492188 C 755.316406 745.945312 753.03125 748.34375 750.6875 750.6875 C 748.34375 753.03125 745.945312 755.316406 743.492188 757.542969 C 741.035156 759.769531 738.527344 761.933594 735.964844 764.035156 C 733.402344 766.136719 730.789062 768.175781 728.128906 770.148438 C 725.46875 772.125 722.757812 774.03125 720.003906 775.871094 C 717.246094 777.714844 714.449219 779.484375 711.605469 781.191406 C 708.761719 782.894531 705.878906 784.527344 702.957031 786.089844 C 700.035156 787.652344 697.074219 789.140625 694.078125 790.558594 C 691.082031 791.976562 688.054688 793.316406 684.992188 794.585938 C 681.929688 795.855469 678.839844 797.046875 675.71875 798.164062 C 672.601562 799.277344 669.453125 800.316406 666.28125 801.28125 C 663.109375 802.242188 659.917969 803.125 656.703125 803.929688 C 653.488281 804.738281 650.257812 805.460938 647.003906 806.109375 C 643.753906 806.753906 640.492188 807.320312 637.210938 807.808594 C 633.933594 808.292969 630.648438 808.699219 627.347656 809.023438 C 624.050781 809.351562 620.746094 809.59375 617.4375 809.757812 C 614.125 809.917969 610.8125 810 607.5 810 L 202.5 810 C 199.1875 810 195.875 809.917969 192.5625 809.757812 C 189.253906 809.59375 185.949219 809.351562 182.652344 809.023438 C 179.351562 808.699219 176.066406 808.292969 172.785156 807.808594 C 169.507812 807.320312 166.246094 806.753906 162.996094 806.109375 C 159.742188 805.460938 156.511719 804.738281 153.296875 803.929688 C 150.082031 803.125 146.890625 802.242188 143.71875 801.28125 C 140.546875 800.316406 137.398438 799.277344 134.28125 798.164062 C 131.160156 797.046875 128.070312 795.855469 125.007812 794.585938 C 121.945312 793.316406 118.914062 791.976562 115.921875 790.558594 C 112.925781 789.140625 109.964844 787.652344 107.042969 786.089844 C 104.121094 784.527344 101.238281 782.894531 98.394531 781.191406 C 95.550781 779.484375 92.753906 777.714844 89.996094 775.871094 C 87.242188 774.03125 84.53125 772.125 81.871094 770.148438 C 79.210938 768.175781 76.597656 766.136719 74.035156 764.035156 C 71.472656 761.933594 68.964844 759.769531 66.507812 757.542969 C 64.054688 755.316406 61.652344 753.03125 59.3125 750.6875 C 56.96875 748.34375 54.683594 745.945312 52.457031 743.492188 C 50.230469 741.035156 48.066406 738.527344 45.964844 735.964844 C 43.863281 733.402344 41.824219 730.789062 39.851562 728.128906 C 37.875 725.46875 35.96875 722.757812 34.128906 720.003906 C 32.285156 717.246094 30.515625 714.449219 28.808594 711.605469 C 27.105469 708.761719 25.472656 705.878906 23.910156 702.957031 C 22.347656 700.035156 20.859375 697.074219 19.441406 694.078125 C 18.023438 691.082031 16.683594 688.054688 15.414062 684.992188 C 14.144531 681.929688 12.953125 678.839844 11.835938 675.71875 C 10.722656 672.601562 9.679688 669.453125 8.71875 666.28125 C 7.757812 663.109375 6.875 659.917969 6.070312 656.703125 C 5.261719 653.488281 4.539062 650.257812 3.890625 647.003906 C 3.246094 643.753906 2.679688 640.492188 2.191406 637.210938 C 1.707031 633.933594 1.300781 630.648438 0.976562 627.347656 C 0.648438 624.050781 0.40625 620.746094 0.242188 617.4375 C 0.0820312 614.125 0 610.8125 0 607.5 L 0 202.5 C 0 199.1875 0.0820312 195.875 0.242188 192.5625 C 0.40625 189.253906 0.648438 185.949219 0.976562 182.652344 C 1.300781 179.351562 1.707031 176.066406 2.191406 172.785156 C 2.679688 169.507812 3.246094 166.246094 3.890625 162.996094 C 4.539062 159.742188 5.261719 156.511719 6.070312 153.296875 C 6.875 150.082031 7.757812 146.890625 8.71875 143.71875 C 9.679688 140.546875 10.722656 137.398438 11.835938 134.28125 C 12.953125 131.160156 14.144531 128.070312 15.414062 125.007812 C 16.683594 121.945312 18.023438 118.914062 19.441406 115.921875 C 20.859375 112.925781 22.347656 109.964844 23.910156 107.042969 C 25.472656 104.121094 27.105469 101.238281 28.808594 98.394531 C 30.515625 95.550781 32.285156 92.753906 34.128906 89.996094 C 35.96875 87.242188 37.875 84.53125 39.851562 81.871094 C 41.824219 79.210938 43.863281 76.597656 45.964844 74.035156 C 48.066406 71.472656 50.230469 68.964844 52.457031 66.507812 C 54.683594 64.054688 56.96875 61.652344 59.3125 59.3125 C 61.652344 56.96875 64.054688 54.683594 66.507812 52.457031 C 68.964844 50.230469 71.472656 48.066406 74.035156 45.964844 C 76.597656 43.863281 79.210938 41.824219 81.871094 39.851562 C 84.53125 37.875 87.242188 35.96875 89.996094 34.128906 C 92.753906 32.285156 95.550781 30.515625 98.394531 28.808594 C 101.238281 27.105469 104.121094 25.472656 107.042969 23.910156 C 109.964844 22.347656 112.925781 20.859375 115.921875 19.441406 C 118.914062 18.023438 121.945312 16.683594 125.007812 15.414062 C 128.070312 14.144531 131.160156 12.953125 134.28125 11.835938 C 137.398438 10.722656 140.546875 9.679688 143.71875 8.71875 C 146.890625 7.757812 150.082031 6.875 153.296875 6.070312 C 156.511719 5.261719 159.742188 4.539062 162.996094 3.890625 C 166.246094 3.246094 169.507812 2.679688 172.785156 2.191406 C 176.066406 1.707031 179.351562 1.300781 182.652344 0.976562 C 185.949219 0.648438 189.253906 0.40625 192.5625 0.242188 C 195.875 0.0820312 199.1875 0 202.5 0 Z M 202.5 0 " fill-opacity="1" fill-rule="nonzero"/><path fill="#0e0c15" d="M 506.25 556.875 L 303.75 556.875 C 275.792969 556.875 253.125 534.210938 253.125 506.25 L 253.125 303.75 C 253.125 275.792969 275.792969 253.125 303.75 253.125 L 506.25 253.125 C 534.210938 253.125 556.875 275.792969 556.875 303.75 L 556.875 506.25 C 556.875 534.210938 534.210938 556.875 506.25 556.875 Z M 489.375 344.488281 L 411.988281 421.875 L 438.75 421.875 C 448.070312 421.875 455.625 429.429688 455.625 438.75 C 455.625 448.070312 448.070312 455.625 438.75 455.625 L 371.25 455.625 C 361.929688 455.625 354.375 448.070312 354.375 438.75 L 354.375 371.25 C 354.375 361.929688 361.929688 354.375 371.25 354.375 C 380.570312 354.375 388.125 361.929688 388.125 371.25 L 388.125 398.011719 L 465.511719 320.625 L 438.75 320.625 C 429.429688 320.625 421.875 313.070312 421.875 303.75 C 421.875 294.429688 429.429688 286.875 438.75 286.875 L 506.25 286.875 C 515.570312 286.875 523.125 294.429688 523.125 303.75 L 523.125 371.25 C 523.125 380.570312 515.570312 388.125 506.25 388.125 C 496.929688 388.125 489.375 380.570312 489.375 371.25 Z M 489.375 344.488281 " fill-opacity="1" fill-rule="evenodd"/><g clip-path="url(#f01df76b4e)"><g clip-path="url(#2da33c6705)"><path fill="#ffc876" d="M 156.78125 161.75 L 655.703125 161.75 L 655.703125 666.519531 L 156.78125 666.519531 Z M 156.78125 161.75 " fill-opacity="1" fill-rule="nonzero"/></g></g><g clip-path="url(#aee70932dc)"><path fill="#0e0c15" d="M 386.144531 254.09375 C 385.917969 253.839844 385.679688 253.601562 385.425781 253.363281 L 313.710938 185.113281 C 312.402344 183.832031 310.914062 182.828125 309.234375 182.101562 C 307.558594 181.371094 305.808594 180.964844 303.984375 180.882812 C 303.757812 180.882812 303.488281 180.882812 303.296875 180.882812 L 213.753906 180.882812 C 212.691406 180.871094 211.632812 180.910156 210.574219 181 C 209.515625 181.09375 208.460938 181.234375 207.417969 181.429688 C 206.375 181.625 205.339844 181.867188 204.320312 182.164062 C 203.300781 182.460938 202.296875 182.804688 201.3125 183.199219 C 200.324219 183.59375 199.359375 184.035156 198.414062 184.523438 C 197.472656 185.011719 196.554688 185.546875 195.664062 186.125 C 194.773438 186.703125 193.914062 187.324219 193.082031 187.988281 C 192.253906 188.652344 191.457031 189.355469 190.695312 190.09375 C 189.9375 190.835938 189.214844 191.613281 188.527344 192.425781 C 187.84375 193.238281 187.199219 194.082031 186.597656 194.957031 C 185.996094 195.832031 185.4375 196.734375 184.925781 197.664062 C 184.410156 198.59375 183.945312 199.546875 183.523438 200.523438 C 183.105469 201.5 182.734375 202.492188 182.410156 203.507812 C 182.089844 204.519531 181.816406 205.542969 181.59375 206.582031 C 181.375 207.621094 181.203125 208.667969 181.085938 209.726562 C 180.964844 210.78125 180.898438 211.839844 180.882812 212.902344 L 180.882812 417.804688 C 180.898438 418.867188 180.964844 419.925781 181.085938 420.980469 C 181.203125 422.035156 181.375 423.082031 181.59375 424.121094 C 181.816406 425.160156 182.089844 426.1875 182.410156 427.199219 C 182.734375 428.210938 183.105469 429.207031 183.523438 430.179688 C 183.945312 431.15625 184.410156 432.109375 184.925781 433.039062 C 185.4375 433.96875 185.996094 434.871094 186.597656 435.75 C 187.199219 436.625 187.84375 437.46875 188.527344 438.28125 C 189.214844 439.089844 189.9375 439.867188 190.695312 440.609375 C 191.457031 441.351562 192.253906 442.054688 193.082031 442.714844 C 193.914062 443.378906 194.773438 444 195.664062 444.578125 C 196.554688 445.160156 197.472656 445.691406 198.414062 446.179688 C 199.359375 446.671875 200.324219 447.113281 201.3125 447.503906 C 202.296875 447.898438 203.300781 448.246094 204.320312 448.539062 C 205.339844 448.835938 206.375 449.082031 207.417969 449.277344 C 208.460938 449.46875 209.515625 449.613281 210.574219 449.703125 C 211.632812 449.796875 212.691406 449.835938 213.753906 449.820312 L 357.1875 449.820312 C 358.25 449.835938 359.308594 449.796875 360.367188 449.703125 C 361.425781 449.613281 362.476562 449.46875 363.523438 449.277344 C 364.566406 449.082031 365.601562 448.835938 366.621094 448.539062 C 367.640625 448.246094 368.644531 447.898438 369.628906 447.503906 C 370.617188 447.113281 371.582031 446.671875 372.523438 446.179688 C 373.46875 445.691406 374.386719 445.160156 375.277344 444.578125 C 376.167969 444 377.027344 443.378906 377.859375 442.714844 C 378.6875 442.054688 379.484375 441.351562 380.242188 440.609375 C 381.003906 439.867188 381.726562 439.09375 382.414062 438.28125 C 383.097656 437.46875 383.742188 436.625 384.34375 435.75 C 384.945312 434.871094 385.503906 433.96875 386.015625 433.039062 C 386.527344 432.109375 386.996094 431.15625 387.414062 430.179688 C 387.835938 429.207031 388.207031 428.210938 388.53125 427.199219 C 388.851562 426.1875 389.125 425.160156 389.34375 424.121094 C 389.566406 423.082031 389.738281 422.035156 389.855469 420.980469 C 389.976562 419.925781 390.042969 418.867188 390.058594 417.804688 L 390.058594 264.121094 C 390.058594 262.253906 389.71875 260.449219 389.046875 258.710938 C 388.371094 256.96875 387.402344 255.410156 386.144531 254.035156 Z M 318.339844 230.683594 L 337.765625 249.179688 L 321.328125 249.179688 C 319.835938 249.179688 318.984375 249.015625 318.640625 249.015625 L 318.550781 249.015625 C 318.390625 248.367188 318.324219 247.710938 318.339844 247.042969 Z M 360.175781 417.804688 C 360.175781 418.789062 358.875 419.941406 357.1875 419.941406 L 213.753906 419.941406 C 212.066406 419.941406 210.765625 418.789062 210.765625 417.804688 L 210.765625 212.902344 C 210.765625 211.914062 212.066406 210.765625 213.753906 210.765625 L 288.457031 210.765625 L 288.457031 247.058594 C 288.398438 248.140625 288.394531 249.222656 288.449219 250.304688 C 288.503906 251.386719 288.617188 252.464844 288.789062 253.535156 C 288.957031 254.605469 289.183594 255.664062 289.46875 256.710938 C 289.75 257.753906 290.089844 258.785156 290.484375 259.792969 C 290.875 260.804688 291.324219 261.789062 291.820312 262.753906 C 292.320312 263.714844 292.871094 264.648438 293.46875 265.550781 C 294.066406 266.453125 294.710938 267.324219 295.402344 268.160156 C 296.09375 268.992188 296.828125 269.789062 297.605469 270.542969 C 298.382812 271.300781 299.195312 272.011719 300.050781 272.683594 C 300.902344 273.351562 301.789062 273.972656 302.707031 274.546875 C 303.628906 275.121094 304.574219 275.644531 305.550781 276.117188 C 306.523438 276.589844 307.523438 277.011719 308.542969 277.375 C 309.5625 277.742188 310.601562 278.054688 311.652344 278.308594 C 312.707031 278.566406 313.769531 278.761719 314.847656 278.90625 C 315.921875 279.046875 317 279.128906 318.082031 279.15625 C 319.167969 279.183594 320.25 279.152344 321.328125 279.0625 L 360.175781 279.0625 Z M 360.175781 417.804688 " fill-opacity="1" fill-rule="nonzero"/></g><g clip-path="url(#27c0e8f484)"><path fill="#0e0c15" d="M 599.230469 360.175781 L 452.808594 360.175781 C 451.746094 360.164062 450.6875 360.203125 449.628906 360.292969 C 448.570312 360.382812 447.519531 360.527344 446.472656 360.722656 C 445.429688 360.917969 444.398438 361.160156 443.378906 361.457031 C 442.355469 361.753906 441.351562 362.097656 440.367188 362.492188 C 439.378906 362.886719 438.414062 363.328125 437.472656 363.816406 C 436.527344 364.304688 435.613281 364.839844 434.722656 365.417969 C 433.832031 365.996094 432.96875 366.617188 432.140625 367.28125 C 431.308594 367.945312 430.515625 368.644531 429.753906 369.386719 C 428.992188 370.128906 428.269531 370.90625 427.585938 371.71875 C 426.898438 372.53125 426.257812 373.375 425.65625 374.25 C 425.050781 375.125 424.496094 376.027344 423.980469 376.957031 C 423.46875 377.886719 423 378.839844 422.582031 379.816406 C 422.160156 380.792969 421.789062 381.785156 421.46875 382.796875 C 421.144531 383.8125 420.875 384.835938 420.652344 385.875 C 420.429688 386.914062 420.257812 387.960938 420.140625 389.015625 C 420.023438 390.074219 419.953125 391.132812 419.941406 392.195312 L 419.941406 597.09375 C 419.953125 598.15625 420.023438 599.214844 420.140625 600.273438 C 420.257812 601.328125 420.429688 602.375 420.652344 603.414062 C 420.875 604.453125 421.144531 605.480469 421.46875 606.492188 C 421.789062 607.503906 422.160156 608.496094 422.582031 609.472656 C 423 610.449219 423.46875 611.402344 423.980469 612.332031 C 424.496094 613.261719 425.050781 614.164062 425.65625 615.039062 C 426.257812 615.914062 426.898438 616.757812 427.585938 617.570312 C 428.269531 618.382812 428.992188 619.160156 429.753906 619.902344 C 430.515625 620.644531 431.308594 621.34375 432.140625 622.007812 C 432.96875 622.671875 433.832031 623.292969 434.722656 623.871094 C 435.613281 624.449219 436.527344 624.984375 437.472656 625.472656 C 438.414062 625.960938 439.378906 626.402344 440.367188 626.796875 C 441.351562 627.191406 442.355469 627.535156 443.378906 627.832031 C 444.398438 628.128906 445.429688 628.375 446.472656 628.566406 C 447.519531 628.761719 448.570312 628.90625 449.628906 628.996094 C 450.6875 629.085938 451.746094 629.125 452.808594 629.113281 L 596.242188 629.113281 C 597.304688 629.125 598.367188 629.085938 599.425781 628.996094 C 600.484375 628.90625 601.535156 628.761719 602.578125 628.566406 C 603.625 628.375 604.65625 628.128906 605.675781 627.832031 C 606.695312 627.535156 607.699219 627.191406 608.6875 626.796875 C 609.671875 626.402344 610.636719 625.960938 611.582031 625.472656 C 612.523438 624.984375 613.441406 624.449219 614.332031 623.871094 C 615.222656 623.292969 616.082031 622.671875 616.914062 622.007812 C 617.742188 621.34375 618.539062 620.644531 619.300781 619.902344 C 620.0625 619.160156 620.785156 618.382812 621.46875 617.570312 C 622.152344 616.757812 622.796875 615.914062 623.398438 615.039062 C 624 614.164062 624.558594 613.261719 625.070312 612.332031 C 625.585938 611.402344 626.050781 610.449219 626.472656 609.472656 C 626.890625 608.496094 627.261719 607.503906 627.585938 606.492188 C 627.90625 605.480469 628.179688 604.453125 628.402344 603.414062 C 628.625 602.375 628.792969 601.328125 628.914062 600.273438 C 629.03125 599.214844 629.097656 598.15625 629.113281 597.09375 L 629.113281 390.058594 C 629.113281 389.078125 629.066406 388.101562 628.96875 387.128906 C 628.875 386.15625 628.730469 385.1875 628.539062 384.226562 C 628.347656 383.269531 628.109375 382.320312 627.828125 381.382812 C 627.542969 380.445312 627.214844 379.527344 626.839844 378.621094 C 626.464844 377.71875 626.046875 376.835938 625.585938 375.972656 C 625.125 375.109375 624.621094 374.269531 624.078125 373.457031 C 623.535156 372.640625 622.953125 371.855469 622.332031 371.101562 C 621.710938 370.34375 621.054688 369.621094 620.363281 368.929688 C 619.667969 368.234375 618.945312 367.578125 618.1875 366.957031 C 617.433594 366.335938 616.648438 365.753906 615.832031 365.210938 C 615.019531 364.667969 614.179688 364.164062 613.316406 363.703125 C 612.453125 363.242188 611.570312 362.824219 610.667969 362.449219 C 609.761719 362.074219 608.84375 361.746094 607.90625 361.460938 C 606.96875 361.179688 606.019531 360.941406 605.0625 360.75 C 604.101562 360.558594 603.132812 360.414062 602.160156 360.320312 C 601.1875 360.222656 600.210938 360.175781 599.230469 360.175781 Z M 599.230469 597.09375 C 599.230469 598.082031 597.933594 599.230469 596.242188 599.230469 L 452.808594 599.230469 C 451.121094 599.230469 449.820312 598.082031 449.820312 597.09375 L 449.820312 392.195312 C 449.820312 391.207031 451.121094 390.058594 452.808594 390.058594 L 599.230469 390.058594 Z M 599.230469 597.09375 " fill-opacity="1" fill-rule="nonzero"/></g><path fill="#0e0c15" d="M 479.703125 449.820312 L 569.351562 449.820312 C 570.332031 449.820312 571.300781 449.726562 572.265625 449.535156 C 573.226562 449.34375 574.160156 449.058594 575.066406 448.683594 C 575.972656 448.308594 576.835938 447.847656 577.652344 447.304688 C 578.464844 446.757812 579.222656 446.140625 579.914062 445.445312 C 580.609375 444.75 581.226562 443.996094 581.773438 443.179688 C 582.316406 442.367188 582.777344 441.503906 583.152344 440.597656 C 583.527344 439.691406 583.8125 438.757812 584.003906 437.796875 C 584.195312 436.832031 584.289062 435.863281 584.289062 434.878906 C 584.289062 433.898438 584.195312 432.929688 584.003906 431.964844 C 583.8125 431.003906 583.527344 430.070312 583.152344 429.164062 C 582.777344 428.257812 582.316406 427.394531 581.773438 426.578125 C 581.226562 425.765625 580.609375 425.007812 579.914062 424.316406 C 579.222656 423.621094 578.464844 423.003906 577.652344 422.457031 C 576.835938 421.914062 575.972656 421.453125 575.066406 421.078125 C 574.160156 420.703125 573.226562 420.417969 572.265625 420.226562 C 571.300781 420.035156 570.332031 419.941406 569.351562 419.941406 L 479.703125 419.941406 C 478.722656 419.941406 477.75 420.035156 476.789062 420.226562 C 475.828125 420.417969 474.890625 420.703125 473.984375 421.078125 C 473.078125 421.453125 472.21875 421.914062 471.402344 422.457031 C 470.585938 423.003906 469.832031 423.621094 469.140625 424.316406 C 468.445312 425.007812 467.824219 425.765625 467.28125 426.578125 C 466.734375 427.394531 466.277344 428.257812 465.898438 429.164062 C 465.523438 430.070312 465.242188 431.003906 465.050781 431.964844 C 464.859375 432.929688 464.761719 433.898438 464.761719 434.878906 C 464.761719 435.863281 464.859375 436.832031 465.050781 437.796875 C 465.242188 438.757812 465.523438 439.691406 465.898438 440.597656 C 466.277344 441.503906 466.734375 442.367188 467.28125 443.179688 C 467.824219 443.996094 468.445312 444.75 469.140625 445.445312 C 469.832031 446.140625 470.585938 446.757812 471.402344 447.304688 C 472.21875 447.847656 473.078125 448.308594 473.984375 448.683594 C 474.890625 449.058594 475.828125 449.34375 476.789062 449.535156 C 477.75 449.726562 478.722656 449.820312 479.703125 449.820312 Z M 479.703125 449.820312 " fill-opacity="1" fill-rule="nonzero"/><path fill="#0e0c15" d="M 479.703125 494.644531 L 569.351562 494.644531 C 570.332031 494.644531 571.300781 494.550781 572.265625 494.359375 C 573.226562 494.167969 574.160156 493.882812 575.066406 493.507812 C 575.972656 493.132812 576.835938 492.671875 577.652344 492.125 C 578.464844 491.582031 579.222656 490.960938 579.914062 490.269531 C 580.609375 489.574219 581.226562 488.820312 581.773438 488.003906 C 582.316406 487.1875 582.777344 486.328125 583.152344 485.421875 C 583.527344 484.515625 583.8125 483.582031 584.003906 482.617188 C 584.195312 481.65625 584.289062 480.683594 584.289062 479.703125 C 584.289062 478.722656 584.195312 477.75 584.003906 476.789062 C 583.8125 475.828125 583.527344 474.890625 583.152344 473.984375 C 582.777344 473.078125 582.316406 472.21875 581.773438 471.402344 C 581.226562 470.585938 580.609375 469.832031 579.914062 469.140625 C 579.222656 468.445312 578.464844 467.824219 577.652344 467.28125 C 576.835938 466.734375 575.972656 466.277344 575.066406 465.898438 C 574.160156 465.523438 573.226562 465.242188 572.265625 465.050781 C 571.300781 464.859375 570.332031 464.761719 569.351562 464.761719 L 479.703125 464.761719 C 478.722656 464.761719 477.75 464.859375 476.789062 465.050781 C 475.828125 465.242188 474.890625 465.523438 473.984375 465.898438 C 473.078125 466.277344 472.21875 466.734375 471.402344 467.28125 C 470.585938 467.824219 469.832031 468.445312 469.140625 469.140625 C 468.445312 469.832031 467.824219 470.585938 467.28125 471.402344 C 466.734375 472.21875 466.277344 473.078125 465.898438 473.984375 C 465.523438 474.890625 465.242188 475.828125 465.050781 476.789062 C 464.859375 477.75 464.761719 478.722656 464.761719 479.703125 C 464.761719 480.683594 464.859375 481.65625 465.050781 482.617188 C 465.242188 483.582031 465.523438 484.515625 465.898438 485.421875 C 466.277344 486.328125 466.734375 487.1875 467.28125 488.003906 C 467.824219 488.820312 468.445312 489.574219 469.140625 490.269531 C 469.832031 490.960938 470.585938 491.582031 471.402344 492.125 C 472.21875 492.671875 473.078125 493.132812 473.984375 493.507812 C 474.890625 493.882812 475.828125 494.167969 476.789062 494.359375 C 477.75 494.550781 478.722656 494.644531 479.703125 494.644531 Z M 479.703125 494.644531 " fill-opacity="1" fill-rule="nonzero"/><path fill="#0e0c15" d="M 375.117188 554.410156 L 315.351562 554.410156 C 314.371094 554.410156 313.398438 554.3125 312.4375 554.121094 C 311.476562 553.929688 310.542969 553.648438 309.636719 553.269531 C 308.726562 552.894531 307.867188 552.4375 307.050781 551.890625 C 306.234375 551.34375 305.480469 550.726562 304.789062 550.03125 C 304.09375 549.339844 303.472656 548.585938 302.929688 547.769531 C 302.382812 546.953125 301.925781 546.089844 301.550781 545.183594 C 301.171875 544.277344 300.890625 543.34375 300.699219 542.382812 C 300.507812 541.421875 300.410156 540.449219 300.410156 539.46875 L 300.410156 515.769531 L 304.789062 520.148438 C 305.488281 520.824219 306.242188 521.421875 307.058594 521.949219 C 307.871094 522.476562 308.730469 522.917969 309.632812 523.277344 C 310.53125 523.640625 311.460938 523.90625 312.414062 524.085938 C 313.367188 524.265625 314.328125 524.351562 315.296875 524.34375 C 316.269531 524.335938 317.230469 524.230469 318.179688 524.035156 C 319.128906 523.839844 320.050781 523.554688 320.945312 523.179688 C 321.839844 522.804688 322.691406 522.347656 323.496094 521.808594 C 324.300781 521.265625 325.046875 520.652344 325.734375 519.96875 C 326.417969 519.28125 327.03125 518.535156 327.574219 517.730469 C 328.113281 516.925781 328.574219 516.074219 328.949219 515.179688 C 329.324219 514.285156 329.609375 513.363281 329.804688 512.414062 C 330 511.460938 330.101562 510.503906 330.109375 509.53125 C 330.117188 508.5625 330.03125 507.601562 329.855469 506.648438 C 329.675781 505.691406 329.40625 504.765625 329.046875 503.863281 C 328.6875 502.964844 328.242188 502.105469 327.714844 501.292969 C 327.191406 500.476562 326.589844 499.71875 325.914062 499.023438 L 296.035156 469.140625 C 295.339844 468.445312 294.585938 467.828125 293.769531 467.28125 C 292.953125 466.738281 292.09375 466.277344 291.1875 465.902344 C 290.28125 465.527344 289.347656 465.246094 288.386719 465.054688 C 287.421875 464.863281 286.453125 464.765625 285.46875 464.765625 C 284.488281 464.765625 283.519531 464.863281 282.554688 465.054688 C 281.59375 465.246094 280.660156 465.527344 279.753906 465.902344 C 278.847656 466.277344 277.988281 466.738281 277.171875 467.28125 C 276.355469 467.828125 275.601562 468.445312 274.90625 469.140625 L 245.023438 499.023438 C 244.351562 499.71875 243.75 500.476562 243.222656 501.292969 C 242.699219 502.105469 242.253906 502.964844 241.894531 503.863281 C 241.535156 504.765625 241.265625 505.691406 241.085938 506.648438 C 240.910156 507.601562 240.824219 508.5625 240.832031 509.53125 C 240.839844 510.503906 240.941406 511.460938 241.136719 512.414062 C 241.332031 513.363281 241.617188 514.285156 241.992188 515.179688 C 242.367188 516.074219 242.828125 516.925781 243.367188 517.730469 C 243.90625 518.535156 244.519531 519.28125 245.207031 519.96875 C 245.894531 520.652344 246.640625 521.265625 247.445312 521.808594 C 248.25 522.347656 249.101562 522.804688 249.996094 523.179688 C 250.890625 523.554688 251.8125 523.839844 252.761719 524.035156 C 253.710938 524.230469 254.671875 524.335938 255.640625 524.34375 C 256.613281 524.351562 257.574219 524.265625 258.527344 524.085938 C 259.480469 523.90625 260.410156 523.640625 261.308594 523.277344 C 262.210938 522.917969 263.066406 522.476562 263.882812 521.949219 C 264.699219 521.421875 265.453125 520.824219 266.152344 520.148438 L 270.53125 515.769531 L 270.53125 539.46875 C 270.53125 540.9375 270.601562 542.398438 270.746094 543.859375 C 270.890625 545.320312 271.105469 546.773438 271.390625 548.210938 C 271.675781 549.652344 272.035156 551.074219 272.460938 552.480469 C 272.886719 553.882812 273.378906 555.265625 273.941406 556.621094 C 274.503906 557.976562 275.128906 559.300781 275.820312 560.597656 C 276.515625 561.890625 277.269531 563.148438 278.082031 564.371094 C 278.898438 565.589844 279.773438 566.769531 280.703125 567.902344 C 281.636719 569.039062 282.621094 570.125 283.65625 571.164062 C 284.695312 572.199219 285.78125 573.183594 286.917969 574.117188 C 288.050781 575.046875 289.230469 575.921875 290.449219 576.738281 C 291.671875 577.550781 292.929688 578.304688 294.222656 579 C 295.519531 579.691406 296.84375 580.316406 298.199219 580.878906 C 299.554688 581.441406 300.9375 581.933594 302.339844 582.359375 C 303.746094 582.785156 305.167969 583.144531 306.609375 583.429688 C 308.046875 583.714844 309.5 583.929688 310.960938 584.074219 C 312.421875 584.21875 313.882812 584.289062 315.351562 584.289062 L 375.117188 584.289062 C 376.097656 584.289062 377.070312 584.195312 378.03125 584.003906 C 378.992188 583.8125 379.929688 583.527344 380.835938 583.152344 C 381.742188 582.777344 382.601562 582.316406 383.417969 581.773438 C 384.234375 581.226562 384.988281 580.609375 385.679688 579.914062 C 386.375 579.222656 386.996094 578.464844 387.539062 577.652344 C 388.085938 576.835938 388.542969 575.972656 388.921875 575.066406 C 389.296875 574.160156 389.578125 573.226562 389.769531 572.265625 C 389.960938 571.300781 390.058594 570.332031 390.058594 569.351562 C 390.058594 568.367188 389.960938 567.398438 389.769531 566.433594 C 389.578125 565.472656 389.296875 564.539062 388.921875 563.632812 C 388.542969 562.726562 388.085938 561.863281 387.539062 561.050781 C 386.996094 560.234375 386.375 559.480469 385.679688 558.785156 C 384.988281 558.089844 384.234375 557.472656 383.417969 556.925781 C 382.601562 556.382812 381.742188 555.921875 380.835938 555.546875 C 379.929688 555.171875 378.992188 554.886719 378.03125 554.695312 C 377.070312 554.503906 376.097656 554.410156 375.117188 554.410156 Z M 375.117188 554.410156 " fill-opacity="1" fill-rule="nonzero"/><path fill="#0e0c15" d="M 434.878906 255.589844 L 494.644531 255.589844 C 495.625 255.589844 496.597656 255.683594 497.558594 255.875 C 498.523438 256.066406 499.457031 256.351562 500.363281 256.726562 C 501.269531 257.101562 502.128906 257.5625 502.945312 258.105469 C 503.761719 258.652344 504.515625 259.269531 505.210938 259.964844 C 505.902344 260.660156 506.523438 261.414062 507.066406 262.230469 C 507.613281 263.042969 508.074219 263.90625 508.449219 264.8125 C 508.824219 265.71875 509.105469 266.652344 509.296875 267.613281 C 509.488281 268.578125 509.585938 269.546875 509.585938 270.53125 L 509.585938 294.226562 L 505.207031 289.847656 C 504.511719 289.175781 503.753906 288.574219 502.9375 288.046875 C 502.125 287.519531 501.265625 287.078125 500.367188 286.71875 C 499.464844 286.359375 498.539062 286.089844 497.582031 285.910156 C 496.628906 285.730469 495.667969 285.644531 494.699219 285.65625 C 493.726562 285.664062 492.769531 285.765625 491.816406 285.960938 C 490.867188 286.15625 489.945312 286.441406 489.050781 286.816406 C 488.15625 287.191406 487.304688 287.648438 486.5 288.191406 C 485.695312 288.730469 484.949219 289.34375 484.261719 290.03125 C 483.578125 290.714844 482.964844 291.460938 482.421875 292.265625 C 481.882812 293.074219 481.425781 293.921875 481.050781 294.816406 C 480.675781 295.710938 480.390625 296.632812 480.195312 297.585938 C 480 298.535156 479.894531 299.496094 479.886719 300.464844 C 479.878906 301.433594 479.964844 302.398438 480.144531 303.351562 C 480.324219 304.304688 480.589844 305.230469 480.953125 306.132812 C 481.3125 307.035156 481.753906 307.890625 482.28125 308.707031 C 482.808594 309.519531 483.40625 310.277344 484.082031 310.976562 L 513.964844 340.855469 C 515.367188 342.253906 516.988281 343.332031 518.820312 344.085938 C 520.644531 344.851562 522.546875 345.234375 524.527344 345.234375 C 526.507812 345.234375 528.410156 344.851562 530.234375 344.085938 C 532.066406 343.332031 533.683594 342.253906 535.089844 340.855469 L 564.972656 310.976562 C 565.644531 310.277344 566.246094 309.519531 566.773438 308.707031 C 567.300781 307.890625 567.742188 307.035156 568.101562 306.132812 C 568.460938 305.230469 568.730469 304.304688 568.910156 303.351562 C 569.089844 302.398438 569.175781 301.433594 569.164062 300.464844 C 569.15625 299.496094 569.054688 298.535156 568.859375 297.585938 C 568.664062 296.636719 568.378906 295.710938 568.003906 294.816406 C 567.628906 293.921875 567.171875 293.074219 566.628906 292.269531 C 566.089844 291.460938 565.476562 290.714844 564.789062 290.03125 C 564.105469 289.34375 563.359375 288.730469 562.554688 288.191406 C 561.746094 287.648438 560.898438 287.191406 560.003906 286.816406 C 559.109375 286.441406 558.1875 286.15625 557.234375 285.960938 C 556.285156 285.765625 555.324219 285.664062 554.355469 285.65625 C 553.386719 285.644531 552.421875 285.730469 551.46875 285.910156 C 550.515625 286.089844 549.589844 286.359375 548.6875 286.71875 C 547.785156 287.078125 546.929688 287.519531 546.113281 288.046875 C 545.300781 288.574219 544.542969 289.175781 543.84375 289.847656 L 539.46875 294.226562 L 539.46875 270.53125 C 539.46875 269.0625 539.394531 267.597656 539.25 266.136719 C 539.109375 264.675781 538.894531 263.226562 538.605469 261.785156 C 538.320312 260.34375 537.964844 258.921875 537.539062 257.519531 C 537.113281 256.113281 536.617188 254.734375 536.054688 253.375 C 535.492188 252.019531 534.867188 250.695312 534.175781 249.398438 C 533.484375 248.105469 532.730469 246.847656 531.914062 245.628906 C 531.097656 244.40625 530.226562 243.230469 529.292969 242.09375 C 528.363281 240.960938 527.378906 239.871094 526.339844 238.835938 C 525.300781 237.796875 524.214844 236.8125 523.082031 235.878906 C 521.945312 234.949219 520.769531 234.074219 519.546875 233.261719 C 518.328125 232.445312 517.070312 231.691406 515.773438 231 C 514.480469 230.308594 513.152344 229.679688 511.796875 229.117188 C 510.441406 228.558594 509.0625 228.0625 507.65625 227.636719 C 506.25 227.210938 504.828125 226.855469 503.390625 226.566406 C 501.949219 226.28125 500.5 226.066406 499.039062 225.921875 C 497.578125 225.777344 496.113281 225.707031 494.644531 225.707031 L 434.878906 225.707031 C 433.898438 225.707031 432.929688 225.800781 431.964844 225.992188 C 431.003906 226.183594 430.070312 226.46875 429.164062 226.84375 C 428.257812 227.21875 427.394531 227.679688 426.578125 228.222656 C 425.765625 228.769531 425.007812 229.390625 424.316406 230.082031 C 423.621094 230.777344 423.003906 231.53125 422.457031 232.347656 C 421.914062 233.164062 421.453125 234.023438 421.078125 234.929688 C 420.703125 235.835938 420.417969 236.769531 420.226562 237.734375 C 420.035156 238.695312 419.941406 239.667969 419.941406 240.648438 C 419.941406 241.628906 420.035156 242.601562 420.226562 243.5625 C 420.417969 244.523438 420.703125 245.457031 421.078125 246.363281 C 421.453125 247.273438 421.914062 248.132812 422.457031 248.949219 C 423.003906 249.765625 423.621094 250.519531 424.316406 251.210938 C 425.007812 251.90625 425.765625 252.527344 426.578125 253.070312 C 427.394531 253.617188 428.257812 254.074219 429.164062 254.453125 C 430.070312 254.828125 431.003906 255.109375 431.964844 255.300781 C 432.929688 255.492188 433.898438 255.589844 434.878906 255.589844 Z M 434.878906 255.589844 " fill-opacity="1" fill-rule="nonzero"/></svg>