<svg xmlns="http://www.w3.org/2000/svg" xmlns:xlink="http://www.w3.org/1999/xlink" width="1080" zoomAndPan="magnify" viewBox="0 0 810 809.999993" height="1080" preserveAspectRatio="xMidYMid meet" version="1.0"><defs><clipPath id="6e4857f7a7"><path d="M 178.53125 178.53125 L 631.46875 178.53125 L 631.46875 631.46875 L 178.53125 631.46875 Z M 178.53125 178.53125 " clip-rule="nonzero"/></clipPath><clipPath id="c7fc06eaa9"><path d="M 405 178.53125 L 436.882812 203.6875 L 474.980469 189.617188 L 497.53125 223.394531 L 538.113281 221.785156 L 549.125 260.875 L 588.214844 271.886719 L 586.605469 312.46875 L 620.382812 335.019531 L 606.3125 373.117188 L 631.46875 405 L 606.3125 436.882812 L 620.382812 474.980469 L 586.605469 497.53125 L 588.214844 538.113281 L 549.125 549.125 L 538.113281 588.214844 L 497.53125 586.605469 L 474.980469 620.382812 L 436.882812 606.3125 L 405 631.46875 L 373.117188 606.3125 L 335.019531 620.382812 L 312.46875 586.605469 L 271.886719 588.214844 L 260.875 549.125 L 221.785156 538.113281 L 223.394531 497.53125 L 189.617188 474.980469 L 203.6875 436.882812 L 178.53125 405 L 203.6875 373.117188 L 189.617188 335.019531 L 223.394531 312.46875 L 221.785156 271.886719 L 260.875 260.875 L 271.886719 221.785156 L 312.46875 223.394531 L 335.019531 189.617188 L 373.117188 203.6875 Z M 405 178.53125 " clip-rule="nonzero"/></clipPath><clipPath id="acc96637d9"><path d="M 248 181.273438 L 562 181.273438 L 562 629 L 248 629 Z M 248 181.273438 " clip-rule="nonzero"/></clipPath></defs><path fill="#0097b2" d="M 202.5 0 L 607.5 0 C 610.8125 0 614.125 0.0820312 617.4375 0.242188 C 620.746094 0.40625 624.050781 0.648438 627.347656 0.976562 C 630.648438 1.300781 633.933594 1.707031 637.210938 2.191406 C 640.492188 2.679688 643.753906 3.246094 647.003906 3.890625 C 650.257812 4.539062 653.488281 5.261719 656.703125 6.070312 C 659.917969 6.875 663.109375 7.757812 666.28125 8.71875 C 669.453125 9.679688 672.601562 10.722656 675.71875 11.835938 C 678.839844 12.953125 681.929688 14.144531 684.992188 15.414062 C 688.054688 16.683594 691.082031 18.023438 694.078125 19.441406 C 697.074219 20.859375 700.035156 22.347656 702.957031 23.910156 C 705.878906 25.472656 708.761719 27.105469 711.605469 28.808594 C 714.449219 30.515625 717.246094 32.285156 720.003906 34.128906 C 722.757812 35.96875 725.46875 37.875 728.128906 39.851562 C 730.789062 41.824219 733.402344 43.863281 735.964844 45.964844 C 738.527344 48.066406 741.035156 50.230469 743.492188 52.457031 C 745.945312 54.683594 748.34375 56.96875 750.6875 59.3125 C 753.03125 61.652344 755.316406 64.054688 757.542969 66.507812 C 759.769531 68.964844 761.933594 71.472656 764.035156 74.035156 C 766.136719 76.597656 768.175781 79.210938 770.148438 81.871094 C 772.125 84.53125 774.03125 87.242188 775.871094 89.996094 C 777.714844 92.753906 779.484375 95.550781 781.191406 98.394531 C 782.894531 101.238281 784.527344 104.121094 786.089844 107.042969 C 787.652344 109.964844 789.140625 112.925781 790.558594 115.921875 C 791.976562 118.914062 793.316406 121.945312 794.585938 125.007812 C 795.855469 128.070312 797.046875 131.160156 798.164062 134.28125 C 799.277344 137.398438 800.316406 140.546875 801.28125 143.71875 C 802.242188 146.890625 803.125 150.082031 803.929688 153.296875 C 804.738281 156.511719 805.460938 159.742188 806.109375 162.996094 C 806.753906 166.246094 807.320312 169.507812 807.808594 172.785156 C 808.292969 176.066406 808.699219 179.351562 809.023438 182.652344 C 809.347656 185.949219 809.59375 189.253906 809.757812 192.5625 C 809.917969 195.875 810 199.1875 810 202.5 L 810 607.5 C 810 610.8125 809.917969 614.125 809.757812 617.4375 C 809.59375 620.746094 809.347656 624.050781 809.023438 627.347656 C 808.699219 630.648438 808.292969 633.933594 807.808594 637.210938 C 807.320312 640.492188 806.753906 643.753906 806.109375 647.003906 C 805.460938 650.257812 804.738281 653.488281 803.929688 656.703125 C 803.125 659.917969 802.242188 663.109375 801.28125 666.28125 C 800.316406 669.453125 799.277344 672.601562 798.164062 675.71875 C 797.046875 678.839844 795.855469 681.929688 794.585938 684.992188 C 793.316406 688.054688 791.976562 691.082031 790.558594 694.078125 C 789.140625 697.074219 787.652344 700.035156 786.089844 702.957031 C 784.527344 705.878906 782.894531 708.761719 781.191406 711.605469 C 779.484375 714.449219 777.714844 717.246094 775.871094 720.003906 C 774.03125 722.757812 772.125 725.46875 770.148438 728.128906 C 768.175781 730.789062 766.136719 733.402344 764.035156 735.964844 C 761.933594 738.527344 759.769531 741.035156 757.542969 743.492188 C 755.316406 745.945312 753.03125 748.34375 750.6875 750.6875 C 748.34375 753.03125 745.945312 755.316406 743.492188 757.542969 C 741.035156 759.769531 738.527344 761.933594 735.964844 764.035156 C 733.402344 766.136719 730.789062 768.175781 728.128906 770.148438 C 725.46875 772.125 722.757812 774.03125 720.003906 775.871094 C 717.246094 777.714844 714.449219 779.484375 711.605469 781.191406 C 708.761719 782.894531 705.878906 784.527344 702.957031 786.089844 C 700.035156 787.652344 697.074219 789.140625 694.078125 790.558594 C 691.082031 791.976562 688.054688 793.316406 684.992188 794.585938 C 681.929688 795.855469 678.839844 797.046875 675.71875 798.164062 C 672.601562 799.277344 669.453125 800.316406 666.28125 801.28125 C 663.109375 802.242188 659.917969 803.125 656.703125 803.929688 C 653.488281 804.738281 650.257812 805.460938 647.003906 806.109375 C 643.753906 806.753906 640.492188 807.320312 637.210938 807.808594 C 633.933594 808.292969 630.648438 808.699219 627.347656 809.023438 C 624.050781 809.351562 620.746094 809.59375 617.4375 809.757812 C 614.125 809.917969 610.8125 810 607.5 810 L 202.5 810 C 199.1875 810 195.875 809.917969 192.5625 809.757812 C 189.253906 809.59375 185.949219 809.351562 182.652344 809.023438 C 179.351562 808.699219 176.066406 808.292969 172.785156 807.808594 C 169.507812 807.320312 166.246094 806.753906 162.996094 806.109375 C 159.742188 805.460938 156.511719 804.738281 153.296875 803.929688 C 150.082031 803.125 146.890625 802.242188 143.71875 801.28125 C 140.546875 800.316406 137.398438 799.277344 134.28125 798.164062 C 131.160156 797.046875 128.070312 795.855469 125.007812 794.585938 C 121.945312 793.316406 118.914062 791.976562 115.921875 790.558594 C 112.925781 789.140625 109.964844 787.652344 107.042969 786.089844 C 104.121094 784.527344 101.238281 782.894531 98.394531 781.191406 C 95.550781 779.484375 92.753906 777.714844 89.996094 775.871094 C 87.242188 774.03125 84.53125 772.125 81.871094 770.148438 C 79.210938 768.175781 76.597656 766.136719 74.035156 764.035156 C 71.472656 761.933594 68.964844 759.769531 66.507812 757.542969 C 64.054688 755.316406 61.652344 753.03125 59.3125 750.6875 C 56.96875 748.34375 54.683594 745.945312 52.457031 743.492188 C 50.230469 741.035156 48.066406 738.527344 45.964844 735.964844 C 43.863281 733.402344 41.824219 730.789062 39.851562 728.128906 C 37.875 725.46875 35.96875 722.757812 34.128906 720.003906 C 32.285156 717.246094 30.515625 714.449219 28.808594 711.605469 C 27.105469 708.761719 25.472656 705.878906 23.910156 702.957031 C 22.347656 700.035156 20.859375 697.074219 19.441406 694.078125 C 18.023438 691.082031 16.683594 688.054688 15.414062 684.992188 C 14.144531 681.929688 12.953125 678.839844 11.835938 675.71875 C 10.722656 672.601562 9.679688 669.453125 8.71875 666.28125 C 7.757812 663.109375 6.875 659.917969 6.070312 656.703125 C 5.261719 653.488281 4.539062 650.257812 3.890625 647.003906 C 3.246094 643.753906 2.679688 640.492188 2.191406 637.210938 C 1.707031 633.933594 1.300781 630.648438 0.976562 627.347656 C 0.648438 624.050781 0.40625 620.746094 0.242188 617.4375 C 0.0820312 614.125 0 610.8125 0 607.5 L 0 202.5 C 0 199.1875 0.0820312 195.875 0.242188 192.5625 C 0.40625 189.253906 0.648438 185.949219 0.976562 182.652344 C 1.300781 179.351562 1.707031 176.066406 2.191406 172.785156 C 2.679688 169.507812 3.246094 166.246094 3.890625 162.996094 C 4.539062 159.742188 5.261719 156.511719 6.070312 153.296875 C 6.875 150.082031 7.757812 146.890625 8.71875 143.71875 C 9.679688 140.546875 10.722656 137.398438 11.835938 134.28125 C 12.953125 131.160156 14.144531 128.070312 15.414062 125.007812 C 16.683594 121.945312 18.023438 118.914062 19.441406 115.921875 C 20.859375 112.925781 22.347656 109.964844 23.910156 107.042969 C 25.472656 104.121094 27.105469 101.238281 28.808594 98.394531 C 30.515625 95.550781 32.285156 92.753906 34.128906 89.996094 C 35.96875 87.242188 37.875 84.53125 39.851562 81.871094 C 41.824219 79.210938 43.863281 76.597656 45.964844 74.035156 C 48.066406 71.472656 50.230469 68.964844 52.457031 66.507812 C 54.683594 64.054688 56.96875 61.652344 59.3125 59.3125 C 61.652344 56.96875 64.054688 54.683594 66.507812 52.457031 C 68.964844 50.230469 71.472656 48.066406 74.035156 45.964844 C 76.597656 43.863281 79.210938 41.824219 81.871094 39.851562 C 84.53125 37.875 87.242188 35.96875 89.996094 34.128906 C 92.753906 32.285156 95.550781 30.515625 98.394531 28.808594 C 101.238281 27.105469 104.121094 25.472656 107.042969 23.910156 C 109.964844 22.347656 112.925781 20.859375 115.921875 19.441406 C 118.914062 18.023438 121.945312 16.683594 125.007812 15.414062 C 128.070312 14.144531 131.160156 12.953125 134.28125 11.835938 C 137.398438 10.722656 140.546875 9.679688 143.71875 8.71875 C 146.890625 7.757812 150.082031 6.875 153.296875 6.070312 C 156.511719 5.261719 159.742188 4.539062 162.996094 3.890625 C 166.246094 3.246094 169.507812 2.679688 172.785156 2.191406 C 176.066406 1.707031 179.351562 1.300781 182.652344 0.976562 C 185.949219 0.648438 189.253906 0.40625 192.5625 0.242188 C 195.875 0.0820312 199.1875 0 202.5 0 Z M 202.5 0 " fill-opacity="1" fill-rule="nonzero"/><path fill="#0e0c15" d="M 253.125 361.125 L 253.125 494.011719 C 253.125 525.363281 253.125 541.042969 259.277344 548.167969 C 264.613281 554.347656 272.605469 557.574219 280.738281 556.832031 C 290.117188 555.976562 301 544.695312 322.769531 522.132812 L 338.449219 505.878906 C 344.324219 499.792969 347.257812 496.75 350.714844 494.570312 C 353.78125 492.640625 357.136719 491.214844 360.65625 490.351562 C 364.625 489.375 368.851562 489.375 377.3125 489.375 L 448.875 489.375 C 486.679688 489.375 505.578125 489.375 520.019531 482.015625 C 532.71875 475.546875 543.046875 465.21875 549.515625 452.519531 C 556.875 438.078125 556.875 419.179688 556.875 381.375 L 556.875 361.125 C 556.875 323.320312 556.875 304.421875 549.515625 289.980469 C 543.046875 277.28125 532.71875 266.953125 520.019531 260.484375 C 505.578125 253.125 486.679688 253.125 448.875 253.125 L 361.125 253.125 C 323.320312 253.125 304.421875 253.125 289.980469 260.484375 C 277.28125 266.953125 266.953125 277.28125 260.484375 289.980469 C 253.125 304.421875 253.125 323.320312 253.125 361.125 Z M 337.5 388.125 C 346.820312 388.125 354.375 380.570312 354.375 371.25 C 354.375 361.929688 346.820312 354.375 337.5 354.375 C 328.179688 354.375 320.625 361.929688 320.625 371.25 C 320.625 380.570312 328.179688 388.125 337.5 388.125 Z M 421.875 371.25 C 421.875 380.570312 414.320312 388.125 405 388.125 C 395.679688 388.125 388.125 380.570312 388.125 371.25 C 388.125 361.929688 395.679688 354.375 405 354.375 C 414.320312 354.375 421.875 361.929688 421.875 371.25 Z M 472.5 388.125 C 481.820312 388.125 489.375 380.570312 489.375 371.25 C 489.375 361.929688 481.820312 354.375 472.5 354.375 C 463.179688 354.375 455.625 361.929688 455.625 371.25 C 455.625 380.570312 463.179688 388.125 472.5 388.125 Z M 472.5 388.125 " fill-opacity="1" fill-rule="evenodd"/><g clip-path="url(#6e4857f7a7)"><g clip-path="url(#c7fc06eaa9)"><path fill="#0097b2" d="M 178.53125 178.53125 L 631.46875 178.53125 L 631.46875 631.46875 L 178.53125 631.46875 Z M 178.53125 178.53125 " fill-opacity="1" fill-rule="nonzero"/></g></g><g clip-path="url(#acc96637d9)"><path fill="#0e0c15" d="M 248.933594 238.757812 C 247.5625 210.460938 270.488281 181.582031 299.902344 181.757812 C 383.113281 181.652344 466.320312 181.757812 549.53125 181.6875 C 553.503906 181.941406 561.984375 181.257812 560.722656 187.824219 C 561.222656 298.507812 561.046875 409.222656 560.792969 519.863281 C 561.660156 533.148438 547.796875 537.15625 537.144531 537.191406 C 534.800781 546.867188 534.21875 556.898438 537.039062 566.578125 C 543.210938 567.984375 550.71875 566.902344 555.667969 571.632812 C 562.417969 577.769531 561.625 588.019531 560.070312 596.175781 C 554.472656 598.742188 548.195312 597.910156 542.269531 598.128906 C 496.605469 597.800781 450.9375 598.347656 405.277344 597.871094 C 399.464844 598.234375 396.285156 594.769531 398.527344 588.957031 C 408.597656 585.347656 419.640625 587.65625 430.148438 587.078125 C 470.832031 586.648438 511.585938 588.089844 552.230469 586.320312 C 549.816406 580.582031 545.050781 576.898438 538.660156 578.269531 C 496.5 578.414062 454.332031 578.234375 412.207031 578.414062 C 406.394531 578.230469 396.972656 579.457031 397.4375 570.976562 C 401.121094 566.605469 407.003906 567.546875 412.058594 567.328125 C 450.035156 567.433594 487.972656 567.363281 525.949219 567.398438 C 525.445312 564.585938 524.394531 559.023438 523.855469 556.207031 C 478.121094 556.207031 432.382812 556.207031 386.644531 556.207031 C 386.175781 578.984375 387.582031 601.875 385.992188 624.617188 L 383.101562 627.542969 C 371.984375 625.019531 362.164062 618.917969 351.808594 614.402344 C 341.410156 619.238281 331.015625 624.113281 320.511719 628.695312 C 315.0625 619.34375 317.371094 608.300781 316.933594 598.050781 C 302.746094 597.761719 287.511719 599.675781 274.484375 592.671875 C 258.429688 584.554688 248.285156 566.796875 249.003906 548.855469 C 248.863281 445.503906 248.933594 342.117188 248.933594 238.757812 Z M 284.273438 561.707031 C 292.503906 570.734375 306.257812 566.328125 316.980469 567.480469 C 317.015625 564.738281 317.089844 559.253906 317.125 556.546875 C 310.082031 555.605469 301.707031 558.023438 295.929688 552.71875 C 296.148438 546.257812 301.890625 544.886719 307.261719 545.355469 C 373.542969 545.425781 439.78125 545.320312 506.0625 545.425781 C 514.328125 544.8125 526.527344 548.785156 527.257812 536.652344 C 450.363281 536.328125 373.4375 536.257812 296.546875 536.652344 C 284.0625 535.785156 275.753906 552.320312 284.273438 561.707031 Z M 327.917969 556.21875 C 327.917969 575.316406 327.953125 594.414062 327.917969 613.507812 C 335.679688 609.972656 343.1875 605.855469 351.273438 603.144531 C 359.941406 605.203125 367.660156 610.003906 375.820312 613.46875 C 375.679688 594.410156 375.75 575.34375 375.75 556.25 C 359.792969 556.253906 343.875 556.21875 327.917969 556.21875 Z M 327.917969 556.21875 " fill-opacity="1" fill-rule="nonzero"/></g></svg>