<svg xmlns="http://www.w3.org/2000/svg" xmlns:xlink="http://www.w3.org/1999/xlink" width="1080" zoomAndPan="magnify" viewBox="0 0 810 809.999993" height="1080" preserveAspectRatio="xMidYMid meet" version="1.0"><defs><clipPath id="4226c15041"><path d="M 164.234375 192.808594 L 645 192.808594 L 645 617.191406 L 164.234375 617.191406 Z M 164.234375 192.808594 " clip-rule="nonzero"/></clipPath><clipPath id="03b758e0e0"><path d="M 202.484375 192.808594 L 607.515625 192.808594 C 617.660156 192.808594 627.386719 196.839844 634.5625 204.011719 C 641.734375 211.1875 645.765625 220.914062 645.765625 231.058594 L 645.765625 578.941406 C 645.765625 589.085938 641.734375 598.8125 634.5625 605.988281 C 627.386719 613.160156 617.660156 617.191406 607.515625 617.191406 L 202.484375 617.191406 C 192.339844 617.191406 182.613281 613.160156 175.4375 605.988281 C 168.265625 598.8125 164.234375 589.085938 164.234375 578.941406 L 164.234375 231.058594 C 164.234375 220.914062 168.265625 211.1875 175.4375 204.011719 C 182.613281 196.839844 192.339844 192.808594 202.484375 192.808594 Z M 202.484375 192.808594 " clip-rule="nonzero"/></clipPath><clipPath id="1b300a6cfa"><path d="M 200 200 L 610.519531 200 L 610.519531 610 L 200 610 Z M 200 200 " clip-rule="nonzero"/></clipPath></defs><path fill="#cb6ce6" d="M 202.5 0 L 607.5 0 C 610.8125 0 614.125 0.0820312 617.4375 0.242188 C 620.746094 0.40625 624.050781 0.648438 627.347656 0.976562 C 630.648438 1.300781 633.933594 1.707031 637.210938 2.191406 C 640.492188 2.679688 643.753906 3.246094 647.003906 3.890625 C 650.257812 4.539062 653.488281 5.261719 656.703125 6.070312 C 659.917969 6.875 663.109375 7.757812 666.28125 8.71875 C 669.453125 9.679688 672.601562 10.722656 675.71875 11.835938 C 678.839844 12.953125 681.929688 14.144531 684.992188 15.414062 C 688.054688 16.683594 691.082031 18.023438 694.078125 19.441406 C 697.074219 20.859375 700.035156 22.347656 702.957031 23.910156 C 705.878906 25.472656 708.761719 27.105469 711.605469 28.808594 C 714.449219 30.515625 717.246094 32.285156 720.003906 34.128906 C 722.757812 35.96875 725.46875 37.875 728.128906 39.851562 C 730.789062 41.824219 733.402344 43.863281 735.964844 45.964844 C 738.527344 48.066406 741.035156 50.230469 743.492188 52.457031 C 745.945312 54.683594 748.34375 56.96875 750.6875 59.3125 C 753.03125 61.652344 755.316406 64.054688 757.542969 66.507812 C 759.769531 68.964844 761.933594 71.472656 764.035156 74.035156 C 766.136719 76.597656 768.175781 79.210938 770.148438 81.871094 C 772.125 84.53125 774.03125 87.242188 775.871094 89.996094 C 777.714844 92.753906 779.484375 95.550781 781.191406 98.394531 C 782.894531 101.238281 784.527344 104.121094 786.089844 107.042969 C 787.652344 109.964844 789.140625 112.925781 790.558594 115.921875 C 791.976562 118.914062 793.316406 121.945312 794.585938 125.007812 C 795.855469 128.070312 797.046875 131.160156 798.164062 134.28125 C 799.277344 137.398438 800.316406 140.546875 801.28125 143.71875 C 802.242188 146.890625 803.125 150.082031 803.929688 153.296875 C 804.738281 156.511719 805.460938 159.742188 806.109375 162.996094 C 806.753906 166.246094 807.320312 169.507812 807.808594 172.785156 C 808.292969 176.066406 808.699219 179.351562 809.023438 182.652344 C 809.347656 185.949219 809.59375 189.253906 809.757812 192.5625 C 809.917969 195.875 810 199.1875 810 202.5 L 810 607.5 C 810 610.8125 809.917969 614.125 809.757812 617.4375 C 809.59375 620.746094 809.347656 624.050781 809.023438 627.347656 C 808.699219 630.648438 808.292969 633.933594 807.808594 637.210938 C 807.320312 640.492188 806.753906 643.753906 806.109375 647.003906 C 805.460938 650.257812 804.738281 653.488281 803.929688 656.703125 C 803.125 659.917969 802.242188 663.109375 801.28125 666.28125 C 800.316406 669.453125 799.277344 672.601562 798.164062 675.71875 C 797.046875 678.839844 795.855469 681.929688 794.585938 684.992188 C 793.316406 688.054688 791.976562 691.082031 790.558594 694.078125 C 789.140625 697.074219 787.652344 700.035156 786.089844 702.957031 C 784.527344 705.878906 782.894531 708.761719 781.191406 711.605469 C 779.484375 714.449219 777.714844 717.246094 775.871094 720.003906 C 774.03125 722.757812 772.125 725.46875 770.148438 728.128906 C 768.175781 730.789062 766.136719 733.402344 764.035156 735.964844 C 761.933594 738.527344 759.769531 741.035156 757.542969 743.492188 C 755.316406 745.945312 753.03125 748.34375 750.6875 750.6875 C 748.34375 753.03125 745.945312 755.316406 743.492188 757.542969 C 741.035156 759.769531 738.527344 761.933594 735.964844 764.035156 C 733.402344 766.136719 730.789062 768.175781 728.128906 770.148438 C 725.46875 772.125 722.757812 774.03125 720.003906 775.871094 C 717.246094 777.714844 714.449219 779.484375 711.605469 781.191406 C 708.761719 782.894531 705.878906 784.527344 702.957031 786.089844 C 700.035156 787.652344 697.074219 789.140625 694.078125 790.558594 C 691.082031 791.976562 688.054688 793.316406 684.992188 794.585938 C 681.929688 795.855469 678.839844 797.046875 675.71875 798.164062 C 672.601562 799.277344 669.453125 800.316406 666.28125 801.28125 C 663.109375 802.242188 659.917969 803.125 656.703125 803.929688 C 653.488281 804.738281 650.257812 805.460938 647.003906 806.109375 C 643.753906 806.753906 640.492188 807.320312 637.210938 807.808594 C 633.933594 808.292969 630.648438 808.699219 627.347656 809.023438 C 624.050781 809.351562 620.746094 809.59375 617.4375 809.757812 C 614.125 809.917969 610.8125 810 607.5 810 L 202.5 810 C 199.1875 810 195.875 809.917969 192.5625 809.757812 C 189.253906 809.59375 185.949219 809.351562 182.652344 809.023438 C 179.351562 808.699219 176.066406 808.292969 172.785156 807.808594 C 169.507812 807.320312 166.246094 806.753906 162.996094 806.109375 C 159.742188 805.460938 156.511719 804.738281 153.296875 803.929688 C 150.082031 803.125 146.890625 802.242188 143.71875 801.28125 C 140.546875 800.316406 137.398438 799.277344 134.28125 798.164062 C 131.160156 797.046875 128.070312 795.855469 125.007812 794.585938 C 121.945312 793.316406 118.914062 791.976562 115.921875 790.558594 C 112.925781 789.140625 109.964844 787.652344 107.042969 786.089844 C 104.121094 784.527344 101.238281 782.894531 98.394531 781.191406 C 95.550781 779.484375 92.753906 777.714844 89.996094 775.871094 C 87.242188 774.03125 84.53125 772.125 81.871094 770.148438 C 79.210938 768.175781 76.597656 766.136719 74.035156 764.035156 C 71.472656 761.933594 68.964844 759.769531 66.507812 757.542969 C 64.054688 755.316406 61.652344 753.03125 59.3125 750.6875 C 56.96875 748.34375 54.683594 745.945312 52.457031 743.492188 C 50.230469 741.035156 48.066406 738.527344 45.964844 735.964844 C 43.863281 733.402344 41.824219 730.789062 39.851562 728.128906 C 37.875 725.46875 35.96875 722.757812 34.128906 720.003906 C 32.285156 717.246094 30.515625 714.449219 28.808594 711.605469 C 27.105469 708.761719 25.472656 705.878906 23.910156 702.957031 C 22.347656 700.035156 20.859375 697.074219 19.441406 694.078125 C 18.023438 691.082031 16.683594 688.054688 15.414062 684.992188 C 14.144531 681.929688 12.953125 678.839844 11.835938 675.71875 C 10.722656 672.601562 9.679688 669.453125 8.71875 666.28125 C 7.757812 663.109375 6.875 659.917969 6.070312 656.703125 C 5.261719 653.488281 4.539062 650.257812 3.890625 647.003906 C 3.246094 643.753906 2.679688 640.492188 2.191406 637.210938 C 1.707031 633.933594 1.300781 630.648438 0.976562 627.347656 C 0.648438 624.050781 0.40625 620.746094 0.242188 617.4375 C 0.0820312 614.125 0 610.8125 0 607.5 L 0 202.5 C 0 199.1875 0.0820312 195.875 0.242188 192.5625 C 0.40625 189.253906 0.648438 185.949219 0.976562 182.652344 C 1.300781 179.351562 1.707031 176.066406 2.191406 172.785156 C 2.679688 169.507812 3.246094 166.246094 3.890625 162.996094 C 4.539062 159.742188 5.261719 156.511719 6.070312 153.296875 C 6.875 150.082031 7.757812 146.890625 8.71875 143.71875 C 9.679688 140.546875 10.722656 137.398438 11.835938 134.28125 C 12.953125 131.160156 14.144531 128.070312 15.414062 125.007812 C 16.683594 121.945312 18.023438 118.914062 19.441406 115.921875 C 20.859375 112.925781 22.347656 109.964844 23.910156 107.042969 C 25.472656 104.121094 27.105469 101.238281 28.808594 98.394531 C 30.515625 95.550781 32.285156 92.753906 34.128906 89.996094 C 35.96875 87.242188 37.875 84.53125 39.851562 81.871094 C 41.824219 79.210938 43.863281 76.597656 45.964844 74.035156 C 48.066406 71.472656 50.230469 68.964844 52.457031 66.507812 C 54.683594 64.054688 56.96875 61.652344 59.3125 59.3125 C 61.652344 56.96875 64.054688 54.683594 66.507812 52.457031 C 68.964844 50.230469 71.472656 48.066406 74.035156 45.964844 C 76.597656 43.863281 79.210938 41.824219 81.871094 39.851562 C 84.53125 37.875 87.242188 35.96875 89.996094 34.128906 C 92.753906 32.285156 95.550781 30.515625 98.394531 28.808594 C 101.238281 27.105469 104.121094 25.472656 107.042969 23.910156 C 109.964844 22.347656 112.925781 20.859375 115.921875 19.441406 C 118.914062 18.023438 121.945312 16.683594 125.007812 15.414062 C 128.070312 14.144531 131.160156 12.953125 134.28125 11.835938 C 137.398438 10.722656 140.546875 9.679688 143.71875 8.71875 C 146.890625 7.757812 150.082031 6.875 153.296875 6.070312 C 156.511719 5.261719 159.742188 4.539062 162.996094 3.890625 C 166.246094 3.246094 169.507812 2.679688 172.785156 2.191406 C 176.066406 1.707031 179.351562 1.300781 182.652344 0.976562 C 185.949219 0.648438 189.253906 0.40625 192.5625 0.242188 C 195.875 0.0820312 199.1875 0 202.5 0 Z M 202.5 0 " fill-opacity="1" fill-rule="nonzero"/><path fill="#0e0c15" d="M 253.125 361.125 L 253.125 494.011719 C 253.125 525.363281 253.125 541.042969 259.277344 548.167969 C 264.613281 554.347656 272.605469 557.574219 280.738281 556.832031 C 290.117188 555.976562 301 544.695312 322.769531 522.132812 L 338.449219 505.878906 C 344.324219 499.792969 347.257812 496.75 350.714844 494.570312 C 353.78125 492.640625 357.136719 491.214844 360.65625 490.351562 C 364.625 489.375 368.851562 489.375 377.3125 489.375 L 448.875 489.375 C 486.679688 489.375 505.578125 489.375 520.019531 482.015625 C 532.71875 475.546875 543.046875 465.21875 549.515625 452.519531 C 556.875 438.078125 556.875 419.179688 556.875 381.375 L 556.875 361.125 C 556.875 323.320312 556.875 304.421875 549.515625 289.980469 C 543.046875 277.28125 532.71875 266.953125 520.019531 260.484375 C 505.578125 253.125 486.679688 253.125 448.875 253.125 L 361.125 253.125 C 323.320312 253.125 304.421875 253.125 289.980469 260.484375 C 277.28125 266.953125 266.953125 277.28125 260.484375 289.980469 C 253.125 304.421875 253.125 323.320312 253.125 361.125 Z M 337.5 388.125 C 346.820312 388.125 354.375 380.570312 354.375 371.25 C 354.375 361.929688 346.820312 354.375 337.5 354.375 C 328.179688 354.375 320.625 361.929688 320.625 371.25 C 320.625 380.570312 328.179688 388.125 337.5 388.125 Z M 421.875 371.25 C 421.875 380.570312 414.320312 388.125 405 388.125 C 395.679688 388.125 388.125 380.570312 388.125 371.25 C 388.125 361.929688 395.679688 354.375 405 354.375 C 414.320312 354.375 421.875 361.929688 421.875 371.25 Z M 472.5 388.125 C 481.820312 388.125 489.375 380.570312 489.375 371.25 C 489.375 361.929688 481.820312 354.375 472.5 354.375 C 463.179688 354.375 455.625 361.929688 455.625 371.25 C 455.625 380.570312 463.179688 388.125 472.5 388.125 Z M 472.5 388.125 " fill-opacity="1" fill-rule="evenodd"/><g clip-path="url(#4226c15041)"><g clip-path="url(#03b758e0e0)"><path fill="#cb6ce6" d="M 164.234375 192.808594 L 644.980469 192.808594 L 644.980469 617.191406 L 164.234375 617.191406 Z M 164.234375 192.808594 " fill-opacity="1" fill-rule="nonzero"/></g></g><path fill="#0e0c15" d="M 228.191406 467.523438 L 228.191406 506.300781 L 224.230469 510.257812 C 223.59375 510.894531 222.902344 511.460938 222.152344 511.960938 C 221.402344 512.460938 220.613281 512.882812 219.78125 513.226562 C 218.953125 513.570312 218.09375 513.832031 217.210938 514.007812 C 216.328125 514.183594 215.4375 514.269531 214.539062 514.269531 C 213.636719 514.269531 212.746094 514.179688 211.863281 514.003906 C 210.980469 513.828125 210.125 513.570312 209.292969 513.226562 C 208.460938 512.882812 207.671875 512.457031 206.925781 511.957031 C 206.175781 511.457031 205.484375 510.890625 204.847656 510.253906 C 204.210938 509.617188 203.644531 508.925781 203.144531 508.175781 C 202.644531 507.429688 202.222656 506.640625 201.875 505.808594 C 201.53125 504.976562 201.273438 504.121094 201.097656 503.238281 C 200.921875 502.355469 200.832031 501.464844 200.832031 500.5625 C 200.832031 499.664062 200.917969 498.773438 201.09375 497.890625 C 201.269531 497.007812 201.53125 496.152344 201.875 495.320312 C 202.21875 494.488281 202.640625 493.699219 203.140625 492.949219 C 203.640625 492.199219 204.207031 491.507812 204.84375 490.871094 Z M 228.191406 467.523438 " fill-opacity="1" fill-rule="nonzero"/><g clip-path="url(#1b300a6cfa)"><path fill="#0e0c15" d="M 569.511719 200.199219 L 241.84375 200.199219 C 240.503906 200.203125 239.164062 200.273438 237.832031 200.410156 C 236.5 200.542969 235.175781 200.742188 233.859375 201.007812 C 232.546875 201.273438 231.25 201.601562 229.964844 201.992188 C 228.683594 202.382812 227.425781 202.835938 226.1875 203.351562 C 224.949219 203.867188 223.738281 204.441406 222.558594 205.074219 C 221.378906 205.707031 220.230469 206.394531 219.117188 207.140625 C 218.003906 207.886719 216.925781 208.683594 215.890625 209.535156 C 214.855469 210.386719 213.863281 211.285156 212.917969 212.234375 C 211.96875 213.179688 211.070312 214.171875 210.21875 215.207031 C 209.367188 216.246094 208.570312 217.320312 207.824219 218.433594 C 207.078125 219.546875 206.390625 220.695312 205.757812 221.875 C 205.121094 223.058594 204.550781 224.265625 204.035156 225.503906 C 203.519531 226.742188 203.066406 228 202.675781 229.285156 C 202.285156 230.566406 201.957031 231.863281 201.691406 233.175781 C 201.425781 234.492188 201.226562 235.816406 201.09375 237.148438 C 200.957031 238.484375 200.886719 239.820312 200.882812 241.160156 L 200.882812 568.832031 C 200.886719 570.171875 200.957031 571.507812 201.09375 572.839844 C 201.226562 574.175781 201.425781 575.5 201.691406 576.8125 C 201.957031 578.125 202.285156 579.425781 202.675781 580.707031 C 203.066406 581.988281 203.519531 583.246094 204.035156 584.484375 C 204.550781 585.722656 205.121094 586.933594 205.757812 588.113281 C 206.390625 589.296875 207.078125 590.441406 207.824219 591.554688 C 208.570312 592.671875 209.367188 593.746094 210.21875 594.78125 C 211.070312 595.816406 211.96875 596.808594 212.917969 597.757812 C 213.863281 598.703125 214.855469 599.605469 215.890625 600.453125 C 216.925781 601.304688 218.003906 602.101562 219.117188 602.847656 C 220.230469 603.59375 221.378906 604.285156 222.558594 604.917969 C 223.738281 605.550781 224.949219 606.125 226.1875 606.636719 C 227.425781 607.152344 228.683594 607.605469 229.964844 607.996094 C 231.25 608.390625 232.546875 608.71875 233.859375 608.980469 C 235.175781 609.246094 236.5 609.445312 237.832031 609.582031 C 239.164062 609.714844 240.503906 609.785156 241.84375 609.789062 L 569.511719 609.789062 C 570.851562 609.785156 572.191406 609.714844 573.523438 609.582031 C 574.855469 609.445312 576.179688 609.246094 577.496094 608.980469 C 578.808594 608.71875 580.105469 608.390625 581.390625 607.996094 C 582.671875 607.605469 583.929688 607.152344 585.167969 606.636719 C 586.40625 606.125 587.613281 605.550781 588.796875 604.917969 C 589.976562 604.285156 591.125 603.59375 592.238281 602.847656 C 593.351562 602.101562 594.429688 601.304688 595.464844 600.453125 C 596.5 599.605469 597.492188 598.703125 598.4375 597.757812 C 599.386719 596.808594 600.285156 595.816406 601.136719 594.78125 C 601.988281 593.746094 602.785156 592.671875 603.53125 591.558594 C 604.277344 590.441406 604.964844 589.296875 605.597656 588.113281 C 606.230469 586.933594 606.804688 585.722656 607.320312 584.484375 C 607.835938 583.246094 608.289062 581.988281 608.679688 580.707031 C 609.070312 579.425781 609.398438 578.125 609.664062 576.8125 C 609.929688 575.5 610.128906 574.175781 610.261719 572.839844 C 610.398438 571.507812 610.46875 570.171875 610.472656 568.832031 L 610.472656 241.160156 C 610.46875 239.820312 610.398438 238.484375 610.261719 237.148438 C 610.128906 235.816406 609.929688 234.492188 609.664062 233.175781 C 609.398438 231.863281 609.070312 230.566406 608.679688 229.285156 C 608.289062 228 607.835938 226.742188 607.320312 225.503906 C 606.804688 224.265625 606.230469 223.058594 605.597656 221.875 C 604.964844 220.695312 604.277344 219.546875 603.53125 218.433594 C 602.785156 217.320312 601.988281 216.246094 601.136719 215.207031 C 600.285156 214.171875 599.386719 213.179688 598.4375 212.234375 C 597.492188 211.285156 596.5 210.386719 595.464844 209.535156 C 594.429688 208.683594 593.351562 207.886719 592.238281 207.140625 C 591.125 206.394531 589.976562 205.707031 588.796875 205.074219 C 587.613281 204.441406 586.40625 203.867188 585.167969 203.351562 C 583.929688 202.835938 582.671875 202.382812 581.390625 201.992188 C 580.105469 201.601562 578.808594 201.273438 577.496094 201.007812 C 576.179688 200.742188 574.855469 200.542969 573.523438 200.410156 C 572.191406 200.273438 570.851562 200.203125 569.511719 200.199219 Z M 583.164062 404.996094 L 495.785156 339.460938 C 495.136719 338.96875 494.445312 338.535156 493.714844 338.167969 C 492.988281 337.800781 492.230469 337.496094 491.449219 337.265625 C 490.664062 337.03125 489.867188 336.871094 489.054688 336.78125 C 488.242188 336.691406 487.429688 336.671875 486.613281 336.726562 C 485.800781 336.785156 484.996094 336.914062 484.203125 337.113281 C 483.410156 337.3125 482.644531 337.582031 481.898438 337.921875 C 481.15625 338.257812 480.449219 338.660156 479.777344 339.125 C 479.105469 339.589844 478.480469 340.113281 477.902344 340.691406 L 394.34375 424.246094 L 573.921875 581.582031 C 572.503906 582.132812 571.035156 582.433594 569.511719 582.484375 L 533.605469 582.484375 L 319.117188 394.753906 C 318.472656 394.183594 317.78125 393.675781 317.042969 393.234375 C 316.300781 392.796875 315.527344 392.429688 314.714844 392.132812 C 313.90625 391.839844 313.074219 391.625 312.226562 391.488281 C 311.375 391.351562 310.519531 391.292969 309.65625 391.320312 C 308.796875 391.34375 307.945312 391.449219 307.105469 391.636719 C 306.261719 391.824219 305.445312 392.085938 304.65625 392.429688 C 303.863281 392.769531 303.113281 393.179688 302.398438 393.664062 C 301.683594 394.148438 301.023438 394.691406 300.414062 395.300781 L 228.191406 467.523438 L 228.191406 241.160156 C 228.191406 240.261719 228.277344 239.375 228.453125 238.496094 C 228.625 237.617188 228.886719 236.761719 229.230469 235.933594 C 229.570312 235.105469 229.992188 234.320312 230.492188 233.574219 C 230.988281 232.828125 231.554688 232.140625 232.1875 231.503906 C 232.824219 230.871094 233.511719 230.304688 234.257812 229.808594 C 235.003906 229.308594 235.789062 228.890625 236.617188 228.546875 C 237.445312 228.203125 238.300781 227.945312 239.179688 227.769531 C 240.058594 227.59375 240.945312 227.507812 241.84375 227.507812 L 569.511719 227.507812 C 570.410156 227.507812 571.296875 227.59375 572.175781 227.769531 C 573.054688 227.945312 573.910156 228.203125 574.738281 228.546875 C 575.566406 228.890625 576.351562 229.308594 577.097656 229.808594 C 577.84375 230.304688 578.53125 230.871094 579.167969 231.503906 C 579.800781 232.140625 580.367188 232.828125 580.863281 233.574219 C 581.363281 234.320312 581.785156 235.105469 582.125 235.933594 C 582.46875 236.761719 582.726562 237.617188 582.902344 238.496094 C 583.078125 239.375 583.164062 240.261719 583.164062 241.160156 Z M 583.164062 404.996094 " fill-opacity="1" fill-rule="nonzero"/></g><path fill="#0e0c15" d="M 392.023438 309.425781 C 392.023438 311.214844 391.9375 312.996094 391.761719 314.777344 C 391.585938 316.558594 391.324219 318.324219 390.976562 320.078125 C 390.625 321.832031 390.191406 323.566406 389.671875 325.277344 C 389.152344 326.988281 388.550781 328.671875 387.867188 330.324219 C 387.183594 331.976562 386.417969 333.589844 385.574219 335.167969 C 384.734375 336.746094 383.816406 338.277344 382.820312 339.765625 C 381.828125 341.253906 380.761719 342.6875 379.628906 344.070312 C 378.492188 345.453125 377.292969 346.777344 376.027344 348.039062 C 374.765625 349.304688 373.441406 350.503906 372.058594 351.640625 C 370.675781 352.773438 369.242188 353.839844 367.753906 354.832031 C 366.265625 355.824219 364.734375 356.746094 363.15625 357.585938 C 361.578125 358.429688 359.964844 359.195312 358.3125 359.878906 C 356.660156 360.5625 354.976562 361.164062 353.265625 361.683594 C 351.554688 362.203125 349.820312 362.636719 348.066406 362.988281 C 346.3125 363.335938 344.546875 363.597656 342.765625 363.773438 C 340.984375 363.949219 339.203125 364.035156 337.414062 364.035156 C 335.625 364.035156 333.839844 363.949219 332.058594 363.773438 C 330.28125 363.597656 328.511719 363.335938 326.757812 362.988281 C 325.003906 362.636719 323.273438 362.203125 321.558594 361.683594 C 319.847656 361.164062 318.167969 360.5625 316.515625 359.878906 C 314.863281 359.195312 313.246094 358.429688 311.667969 357.585938 C 310.089844 356.746094 308.558594 355.824219 307.074219 354.832031 C 305.585938 353.839844 304.148438 352.773438 302.769531 351.640625 C 301.386719 350.503906 300.0625 349.304688 298.796875 348.039062 C 297.53125 346.777344 296.332031 345.453125 295.199219 344.070312 C 294.0625 342.6875 293 341.253906 292.003906 339.765625 C 291.011719 338.277344 290.09375 336.746094 289.25 335.167969 C 288.40625 333.589844 287.644531 331.976562 286.957031 330.324219 C 286.273438 328.671875 285.671875 326.988281 285.152344 325.277344 C 284.632812 323.566406 284.199219 321.832031 283.851562 320.078125 C 283.5 318.324219 283.238281 316.558594 283.0625 314.777344 C 282.890625 312.996094 282.800781 311.214844 282.800781 309.425781 C 282.800781 307.636719 282.890625 305.851562 283.0625 304.070312 C 283.238281 302.292969 283.5 300.523438 283.851562 298.769531 C 284.199219 297.015625 284.632812 295.28125 285.152344 293.570312 C 285.671875 291.859375 286.273438 290.179688 286.957031 288.527344 C 287.644531 286.871094 288.40625 285.257812 289.25 283.679688 C 290.09375 282.101562 291.011719 280.570312 292.003906 279.082031 C 293 277.597656 294.0625 276.160156 295.199219 274.777344 C 296.332031 273.398438 297.53125 272.074219 298.796875 270.808594 C 300.0625 269.542969 301.386719 268.34375 302.769531 267.210938 C 304.148438 266.074219 305.585938 265.011719 307.074219 264.015625 C 308.558594 263.023438 310.089844 262.105469 311.667969 261.261719 C 313.246094 260.417969 314.863281 259.652344 316.515625 258.96875 C 318.167969 258.285156 319.847656 257.683594 321.558594 257.164062 C 323.273438 256.644531 325.003906 256.210938 326.757812 255.863281 C 328.511719 255.511719 330.28125 255.25 332.058594 255.074219 C 333.839844 254.902344 335.625 254.8125 337.414062 254.8125 C 339.203125 254.8125 340.984375 254.902344 342.765625 255.074219 C 344.546875 255.25 346.3125 255.511719 348.066406 255.863281 C 349.820312 256.210938 351.554688 256.644531 353.265625 257.164062 C 354.976562 257.683594 356.660156 258.285156 358.3125 258.96875 C 359.964844 259.652344 361.578125 260.417969 363.15625 261.261719 C 364.734375 262.105469 366.265625 263.023438 367.753906 264.015625 C 369.242188 265.011719 370.675781 266.074219 372.058594 267.210938 C 373.441406 268.34375 374.765625 269.542969 376.027344 270.808594 C 377.292969 272.074219 378.492188 273.398438 379.628906 274.777344 C 380.761719 276.160156 381.828125 277.597656 382.820312 279.082031 C 383.816406 280.570312 384.734375 282.101562 385.574219 283.679688 C 386.417969 285.257812 387.183594 286.871094 387.867188 288.527344 C 388.550781 290.179688 389.152344 291.859375 389.671875 293.570312 C 390.191406 295.28125 390.625 297.015625 390.976562 298.769531 C 391.324219 300.523438 391.585938 302.292969 391.761719 304.070312 C 391.9375 305.851562 392.023438 307.636719 392.023438 309.425781 Z M 392.023438 309.425781 " fill-opacity="1" fill-rule="nonzero"/></svg>