<?xml version="1.0" encoding="utf-8"?>
<svg viewBox="0 0 367.15 337.31" xmlns="http://www.w3.org/2000/svg">
    <defs>
        <clipPath id="a">
            <rect x="0.01" y="6.31" width="367" height="331" style="fill: none" />
        </clipPath>
    </defs>
    <path
        d="M263.18,285.34c-79.07,11.4-187.37-45.45-198.79-124.73S120.4,12.89,199.47,1.49,351.9,45.12,363.33,124.4,342.25,274,263.18,285.34Z"
        style="fill: rgba(133, 131, 135, 0.733);" />
    <g style="clip-path: url(#a)">
        <g>
            <path
                d="M339.25,236.44c0,4.24-60.3,7.72-134.59,7.72-35.47,0-81.77,1.3-105.74,0-26.36-1.42-28.85-5.44-28.85-7.72,0-4.24,115.18-7,189.57-7S339.25,232.2,339.25,236.44Z"
                style="fill: rgb(189, 189, 189);" />
            <path
                d="M291.2,231.76c4.56-9.78,7.27-22.06,14.64-30.11-.76-.43-1.62-.76-2.38-1.19-5.21,10-9.87,20.33-10.09,31.85,0,1.19,1.95,1.41,2.5.65a60.88,60.88,0,0,0,7.7-13l-2.61-.66a60.3,60.3,0,0,0-2.82,11.53,1.42,1.42,0,0,0,2.28,1.08,51.81,51.81,0,0,0,11.06-10.22c.87-1.08-1.62-2.17-2.38-1.19a48.48,48.48,0,0,1-10.74,9.78c.76.33,1.52.76,2.28,1.09a52.42,52.42,0,0,1,2.82-11.52c.43-1.31-2.06-1.85-2.61-.66a56,56,0,0,1-7.48,12.51c.87.21,1.74.43,2.5.65.21-11.09,4.88-21.09,9.87-30.77.75-1.41-1.63-2.06-2.39-1.19-7.48,8-10.09,20.33-14.64,30.11C288.27,232,290.66,233,291.2,231.76Z"
                style="fill: rgb(189, 189, 189);" />
            <path
                d="M109.33,241.87c-5-10.54-7.7-23.59-15.73-32.28-.65-.65-3.14-.76-2.38.65,5.42,10.44,10.3,21.2,10.63,33,.75-.11,1.62-.33,2.38-.44a64.53,64.53,0,0,1-7.92-13.37c-.54-1.19-3-1.09-2.49.44a57,57,0,0,1,2.93,12c.76-.21,1.52-.43,2.17-.65a51.92,51.92,0,0,1-11.39-10.43c-.87-1-3.25-.33-2.17,1a56.11,56.11,0,0,0,11.82,10.87c.65.44,2.39.55,2.17-.65a61,61,0,0,0-3-12.5c-.86.11-1.62.33-2.49.44a61.28,61.28,0,0,0,8.24,13.8c.54.76,2.5.87,2.39-.43-.22-12.07-5.21-23-10.74-33.59-.76.21-1.62.43-2.38.65,7.8,8.48,10.62,21.52,15.4,31.85C107.27,243.4,110,243.29,109.33,241.87Z"
                style="fill: rgb(189, 189, 189);" />
            <path
                d="M16.82,270c-1.19-6-1-12.83-3.9-18.26-.33-.66-2.06-.87-1.85.1,1.41,6,2.61,11.85,1.3,17.94a10.45,10.45,0,0,1,1.85.11,31.81,31.81,0,0,1-2.28-7.61c-.11-.87-1.95-1.2-1.95-.11a41.53,41.53,0,0,1,0,6.31c.54,0,1.19-.11,1.73-.11a34,34,0,0,1-4.44-6.63c-.44-.87-2.28-.66-1.85.32a25.3,25.3,0,0,0,4.67,7c.32.43,1.62.76,1.73-.11a27.64,27.64,0,0,0,0-6.74,11.6,11.6,0,0,1-1.95-.11,40,40,0,0,0,2.39,8.05c.21.65,1.62,1,1.84.1,1.3-6.19.22-12.28-1.19-18.37-.65,0-1.2.11-1.85.11,2.82,5.22,2.71,12.18,3.8,17.94C15.08,270.9,17,271.11,16.82,270Z"
                style="fill: rgb(189, 189, 189);" />
            <path d="M183.94,42c38.07,2.72,76.14-.44,114.2.87,17,.65,33.95,3.15,50.87,1.3"
                style="fill: #fff" />
            <path
                d="M183.73,43.38c27.43,2,54.87.87,82.42.65,14.21-.1,28.31-.1,42.4.87,13.56.87,27.12,2.07,40.78.76,2.5-.21,1.41-3-.76-2.82-14,1.41-27.87,0-41.86-.87-13-.87-26.14-.87-39.15-.76-27.87.22-55.74,1.41-83.51-.55C181.67,40.34,181.34,43.16,183.73,43.38Z"
                style="fill: rgb(189, 189, 189);" />
            <path
                d="M351.17,42.08c-12,0-25.48-.55-33.72-9.24-5.32-5.65-7.38-13.59-12.15-19.68-1.95-2.5-4.66-4.78-7.81-5.32-2.93-.55-6.07.54-8.57,2.06a23.71,23.71,0,0,0-9.65,11c-1.84,4.13-3.47,9.57-8.24,9.57a6.58,6.58,0,0,1-3.15-.87c-5.64-3-9.11-8.92-15.18-11.42a11.29,11.29,0,0,0-6-.76c-7.05,1.31-6.84,9.24-11.28,13.05-2.39,2.06-5.75,2.61-9,2.93-18.44,2.18-37,3.91-55.42,5.11a1,1,0,0,0-.11,2A180.19,180.19,0,0,0,194,42.29"
                style="fill: rgb(81, 79, 105);" />
            <path
                d="M351.17,40.66c-9,0-18.87,0-27-4.67s-10.52-13.48-15.29-20.87c-3.69-5.76-9.22-10.22-16.38-8.26-6.83,1.85-12.25,7.61-15.07,13.8-.76,1.63-1.3,4.13-2.5,5.44-2.27,2.61-6.83,1.85-9.43-.22-3.15-2.61-5.86-5.65-9.33-7.72-4.66-2.71-11-3.48-15.07.66-1.85,1.73-2.82,4.23-4,6.52-2.92,5.76-7.7,6.41-13.77,7.17-10.95,1.31-22,2.39-33.08,3.37-6,.55-12.25.44-18.11,1.41-1.63.22-4.23.66-3.69,3.05.65,2.82,6.62,2.39,8.46,2.61,5.75.65,11.5,1,17.25,1.08,2.38,0,2.17-2.82-.22-2.82-5.1-.11-10.19-.44-15.18-.87-1-.11-5,0-5.43-.22,1.74.87,6.62-.43,8.57-.65,9.65-.76,19.2-1.63,28.85-2.61,7.37-.76,17.14-.33,23.86-3.7,5.53-2.82,5.31-9.13,9.76-12.61,11-8.47,22.77,22,33.19,8.05,4.66-6.2,5.53-15.22,14-18.15,12-4.14,15.83,10.76,20.6,18.47,8.46,13.7,24.4,14.79,39,14.79C353.67,43.49,353.45,40.66,351.17,40.66Z"
                style="fill: rgb(189, 189, 189);" />
            <path d="M22.35,84.36c28,2.07,56.07-.32,84.16.66,12.47.43,25,2.28,37.52,1"
                style="fill: #fff" />
            <path
                d="M22.24,85.78c20.28,1.41,40.56.65,60.84.43,10.52-.11,21,0,31.56.65,9.87.66,19.74,1.42,29.61.55,2.49-.22,1.41-3-.76-2.83-10.3,1-20.5,0-30.69-.65-9.44-.55-18.87-.65-28.31-.55-20.71.11-41.32,1-62-.43C20.18,82.84,19.86,85.67,22.24,85.78Z"
                style="fill: rgb(189, 189, 189);" />
            <path
                d="M145.66,84.47c-8.89,0-18.76-.32-24.83-6.85-3.91-4.13-5.43-10-8.9-14.45-1.52-1.85-3.36-3.59-5.75-3.92a10.46,10.46,0,0,0-6.39,1.52,18.36,18.36,0,0,0-7.16,8c-1.3,3-2.5,7.06-6.07,7.06a4.22,4.22,0,0,1-2.28-.65C80.16,73,77.55,68.6,73.11,66.75a8.87,8.87,0,0,0-4.45-.54c-5.21,1-5,6.85-8.24,9.67-1.74,1.53-4.23,1.85-6.62,2.18C40.25,79.69,26.58,81,12.92,81.86a.71.71,0,0,0,0,1.42,127,127,0,0,0,17,1.3"
                style="fill: rgb(81, 79, 105);" />
            <path
                d="M145.55,83.06c-11,0-20.93-1.09-26.79-11.52-2.92-5.22-5.53-12.61-12.25-13.7S93.6,62.73,90.89,68.28c-.65,1.3-1.19,3.58-2.17,4.67-3.25,3.26-6.94-1.74-8.89-3.37-2.28-2-4.55-3.81-7.48-4.57-6.4-1.41-8.68,2.72-11.5,7.5-3,5.11-10,4.57-15.29,5.11-5.1.55-10.19,1.09-15.29,1.53s-10.2.76-15.29,1.19c-1.52.11-4.12,0-4.45,2.07-.65,4.67,16.38,3.69,19.52,3.69,2.39.11,2.17-2.82-.22-2.82-3.36-.11-6.72-.22-10.08-.55-1-.11-5-1.41-4.56.44.11.32,13.56-1.09,14.32-1.09,8.57-.76,17.35-1.3,25.92-2.72,2.28-.43,4.66-.87,6.51-2.5S64.32,73,65.62,71.1c6.62-9.24,12.91,4.68,19.42,6.09,4.33,1,6.72-2.07,8.46-5.65,2.06-4.24,4.66-9.68,10-10.77,6-1.19,8.79,6.2,11,10.22,2.82,5.33,6.07,9.68,11.71,12.18,6.07,2.61,13,2.71,19.52,2.71C148.05,85.88,147.83,83.06,145.55,83.06Z"
                style="fill: rgb(189, 189, 189);" />
            <path
                d="M240.77,115.45c3.58-2.39,18,4.24,17.79,12s5.09,110.44,2.38,113.16-146.08,4.78-149.23-1.41c-.86-1.74-14-13,1.09-27C150.65,177.09,240.77,115.45,240.77,115.45Z"
                style="fill: rgb(189, 189, 189);" />
            <path
                d="M104.23,119.15c44.9-1.31,89.91-2.5,134.81-3.81,2.38-.11,5.09-.11,6.94,1.53,2.06,1.73,2.38,4.78,2.49,7.5,1.63,35.76,3.15,71.63,4.77,107.39-44.79,11.2-101.18,5.22-144.45,5-2.39,0-5.1.33-6.62-1.52a6.92,6.92,0,0,1-1.19-3.91,573.31,573.31,0,0,1-2.17-104.79"
                style="fill: rgb(81, 79, 105);" />
            <path
                d="M104,120.34l127.33-3.58c5.64-.11,14.2-2.18,15.5,5.32.76,4.35.55,9.13.76,13.48.44,10.76,1,21.53,1.41,32.18,1,21.52,1.85,42.94,2.82,64.46.44-.44.76-1,1.2-1.41-30.59,7.5-62.69,7.17-94,6.3-15.08-.43-30.15-1.09-45.23-1.3-4.55-.11-9.86.32-11.71-4.79-1.41-3.91-1-9.67-1.41-13.8-.76-8.92-1.41-17.83-1.73-26.74a570.09,570.09,0,0,1,1-63.92c.11-1.52-2.49-1.09-2.6.22q-2,29-1.19,58c.32,10,.87,20,1.73,30,.44,5,.87,10,1.41,14.89.33,2.61.33,5.76,2.82,7.39,1.85,1.2,4.45.87,6.4.87,3.9,0,7.81.11,11.6.22,8.25.21,16.49.54,24.73.76,17.46.54,34.81,1.09,52.28.65,18.87-.54,37.74-2.17,56.17-6.63a1.51,1.51,0,0,0,1.2-1.41c-1.63-35.77-2.39-71.64-4.78-107.4-.32-4.57-1.41-8.7-6.5-9.57-7.7-1.3-16.6.22-24.3.44-17.78.54-35.68,1-53.46,1.52-20.28.54-40.67,1.09-60.95,1.74C102.93,118.17,102.17,120.34,104,120.34Z"
                style="fill: rgb(189, 189, 189);" />
            <path
                d="M99.24,125c14.32,9.24,29.72,16.52,45,24,7.48,3.59,14.86,7.39,22,11.52,5.54,3.16,12.69,10.33,19.63,8.81,6.08-1.41,12.26-6.31,17.68-9.24,6-3.26,12-6.63,17.79-10.33,11.28-7.28,21.15-16,28.74-27.17.76-1.09-.76-3-1.74-1.63-7.7,11.3-17.89,20-29.39,27.17-5.31,3.37-10.84,6.42-16.37,9.46-2.72,1.52-5.53,3-8.25,4.46-3.47,1.84-7.7,5.32-11.82,4.78-3.9-.55-7.81-4.24-11.17-6.2s-6.5-3.8-9.76-5.54c-6.94-3.81-14-7.18-21-10.65C126.68,137.74,112.91,131,100,122.63,98.48,121.65,98.16,124.37,99.24,125Z"
                style="fill: rgb(189, 189, 189);" />
            <path
                d="M247.82,129S203.25,163.61,197,168.17s-14.75-.11-14.75-.11,21.69-8.47,27.22-13S246,125.89,246,125.89Z"
                style="fill: rgb(189, 189, 189);" />
            <path
                d="M333.06,262.85l-55.2,1.63a2.41,2.41,0,0,0-1.73,4l21,24a2.56,2.56,0,0,0,2.06.87L361,286.55a2.47,2.47,0,0,0,1.2-4.46c-8.35-5.87-21.26-12.82-27-17.93"
                style="fill: rgb(81, 79, 105);" />
            <path
                d="M333.28,261.87l-41.1,1.31c-4.45.11-9.76-.54-14.21.43-6.94,1.42-1.63,7.18.87,9.9,5.2,6,10.52,11.95,15.72,18,2.71,3.15,4.45,2.94,8.35,2.5,16.16-1.74,32.32-3.59,48.48-5.33,3-.32,10.63.33,12.26-3.15,2.17-4.56-6.08-7.61-8.9-9.35-6.39-4-13.23-7.82-19-12.71-.86-.66-2.16,1-1.3,1.73a110.76,110.76,0,0,0,13.23,9.14c2.39,1.52,4.78,2.93,7.16,4.45,1.41.87,9.11,4.46,6.29,7-.54.43-2.49.33-3.14.33l-8.46,1c-14.43,1.63-29,3.16-43.38,4.79-3.15.32-6.4,1.52-8.9-.66-4.77-4.13-8.67-10-12.9-14.67-1.52-1.74-9.87-8.7-6.29-10.87,1-.54,3.9-.11,5-.11l10.19-.33c13.23-.43,26.46-.76,39.59-1.19C333.82,263.72,334.58,261.77,333.28,261.87Z"
                style="fill: rgb(189, 189, 189);" />
            <path
                d="M277,266.55c9.86,4.24,20.71,3.59,30.8,6.74,4.44,1.41,8.56,5,13.34,3.26s9.43-6.52,13.55-9.57c.87-.65.11-2.61-.76-2-3.9,2.93-7.7,6.52-12,8.8-5,2.72-10.73-1.85-15.72-3.15-9.54-2.61-19.52-2.17-28.74-6.09C276.34,264.05,276,266.11,277,266.55Z"
                style="fill: rgb(189, 189, 189);" />
            <path
                d="M292.39,290.57l5.54,6.42c.54.54,3.47.76,4.33.65L363.54,290c3-.22,4.77-4.78,2.71-7.07-.33-.32-1.41-2.06-1.74-2.06-1.95,0-31.45-20-31.45-20l24.19,18.26a2.76,2.76,0,0,1-1.19,4.89L300.85,293Z"
                style="fill: rgb(189, 189, 189);" />
            <path
                d="M57.05,260.79l63.45,1.95L95.23,291.66a3.67,3.67,0,0,1-3,1.2l-63.77-5.22a2,2,0,0,1-1.08-3.48c8.24-6.74,21.26-16.2,27.65-22"
                style="fill: rgb(81, 79, 105);" />
            <path
                d="M57.05,261.87l63.45,2c-.22-.65-.44-1.3-.65-1.85-5.53,6.31-11,12.61-16.49,18.92-2.71,3-5.2,6.52-8.13,9.24-2,1.85-3.36,1.74-5.75,1.52-19-1.52-37.85-3.15-56.83-4.67-.76-.11-3,.21-3.68-.33-2.17-1.63,2.6-4.57,4.12-5.65,7.48-5.87,15.18-11.42,22.34-17.72.76-.65,0-2.72-.87-2-6.94,6.09-14.42,11.52-21.69,17.18-2.17,1.74-11.39,7.61-4.66,10.21,1.84.66,4.44.44,6.29.55l15.72,1.3,35.14,2.94a47.67,47.67,0,0,0,6.72.54c3.37-.22,4.88-2.93,7-5.22,7.26-8.37,14.64-16.74,21.9-25.11.44-.54.22-1.85-.65-1.85l-63.44-1.95C55.86,259.7,56,261.87,57.05,261.87Z"
                style="fill: rgb(189, 189, 189);" />
            <path
                d="M115.4,262.64c-9.87,4.24-20.82,3.69-31,6.63-4.56,1.3-9.55,5.21-14.21,3.58-5-1.74-9.76-6.63-14-9.78-.87-.65-1.74,1.3-.87,2,4.34,3.26,9.11,8.15,14.21,10.11,4.34,1.63,7.59-1.09,11.6-2.61,11.17-4.35,23.64-3.15,34.71-7.94C116.7,264.27,116.49,262.2,115.4,262.64Z"
                style="fill: rgb(189, 189, 189);" />
            <path
                d="M121.69,261.11c1.63.66,1.09,4.9,0,6.31l-22.23,28c-1,1.31-4.88,2.29-6.4,2.18l-62.79-4.46a5.5,5.5,0,0,1-4.88-3.8l-1-3.16,70.82,5.55L121,261Z"
                style="fill: rgb(189, 189, 189);" />
            <path
                d="M197.5,211.65c-9.87-9.24-31.45-9.56-40.56.87-1,1.2.22,2.94,1.41,1.53,8.24-9.35,28.63-8.59,37.42-.33C196.85,214.7,198.48,212.52,197.5,211.65Z"
                style="fill: rgb(189, 189, 189);" />
            <path
                d="M156,188.28l-.32.33a2.21,2.21,0,0,0-.54.87,2,2,0,0,0-.22.87.92.92,0,0,0,.22.76,1.36,1.36,0,0,0,.54.65c.21.11.32.11.54.22a2.19,2.19,0,0,0,1.19,0c.22-.11.44-.11.65-.22a3.06,3.06,0,0,0,1.2-.87l.32-.32a2.29,2.29,0,0,0,.54-.87,2.06,2.06,0,0,0,.22-.87.9.9,0,0,0-.22-.76,1.37,1.37,0,0,0-.54-.66c-.21-.11-.32-.11-.54-.21a2.19,2.19,0,0,0-1.19,0c-.22.1-.44.1-.65.21A3.51,3.51,0,0,0,156,188.28Z"
                style="fill: rgb(189, 189, 189);" />
            <path
                d="M195.33,188.28l-.33.33a2.47,2.47,0,0,0-.54.87,2,2,0,0,0-.21.87,1,1,0,0,0,.21.76,1.48,1.48,0,0,0,.54.65c.22.11.33.11.55.22a2.19,2.19,0,0,0,1.19,0c.22-.11.43-.11.65-.22a3,3,0,0,0,1.19-.87l.33-.32a2.42,2.42,0,0,0,.54-.87,2.06,2.06,0,0,0,.22-.87.9.9,0,0,0-.22-.76,1.5,1.5,0,0,0-.54-.66c-.22-.11-.33-.11-.54-.21a2.22,2.22,0,0,0-1.2,0c-.21.1-.43.1-.65.21A5.21,5.21,0,0,0,195.33,188.28Z"
                style="fill: rgb(189, 189, 189);" />
            <path
                d="M165,293.4c.43-.33.65-.54.65-.54l43.49,3.36a1.68,1.68,0,0,1,1.19,2.72l-26.68,34.24-54.55-3.26a2,2,0,0,1-1.2-3.37l17.36-15.43c4.66-4.24,9.32-8.48,14.1-12.61.86-.76,3.9-4.46,5.09-4.35,2.82.22,7.27,12,8.68,14.57.87,1.63,1.73,3.58,1.19,5.32-.76,2.07-3.14,2.83-5.31,3.37-14.64,3.59-25.49,7.39-40.13,11"
                style="fill: rgb(81, 79, 105);" />
            <path
                d="M165.83,293.94s.11-.11,1.09-.11c1.3,0,2.71.22,4,.33l12.58,1c4.66.32,9.33.76,14,1.08,3,.22,6.94-.1,9.87.77,2.39.76,1.84,1.19.65,3.15-1.84,2.93-4.45,5.65-6.51,8.37l-16.26,20.87c-.66.87-1.41,1.74-2.07,2.61-.65,1.09,0,.32.22.32-1.84.33-4.44-.21-6.4-.43l-26.57-1.63c-4.34-.22-8.57-.54-12.9-.76-2-.11-5.86.43-7.7-.44-2.82-1.3.54-3.58,2.06-4.89,3.47-3,6.94-6.19,10.3-9.24,3.9-3.48,7.7-7,11.6-10.43,2.06-1.85,4.34-3.7,6.29-5.55a17.79,17.79,0,0,1,2.39-2.5c3.36-1.95,5,2.94,6.18,5.55.87,1.84,2.93,4.89,3.26,7.06.1,1.31-2.17,6.85-3,7.39s-2.71.66-3.69,1c-2.6.65-5.2,1.42-7.81,2.07-9.76,2.71-19.41,5.65-29.28,8.15-1.41.33-.11,1.74,1,1.52,10.73-2.72,21.36-6,32.1-8.91,5.2-1.41,16.05-2,13.56-9.89-1.41-4.46-4.56-12.29-8-15.44-2.93-2.72-4.88-.43-7.37,2-8.9,8.8-18.77,16.85-28.2,25.22-1.52,1.41-6.18,4.13-5.1,6.84.87,2.07,3.36,1.85,5.21,2,10.19.65,20.39,1.2,30.58,1.85,5.1.33,10.09.65,15.18.87,1.74.11,4.67.87,6.4.32s2.93-3,4-4.45c3.26-4.13,6.51-8.37,9.76-12.5s6.62-8.59,10-12.83c1.09-1.41,4.23-4.13,4.23-6.2,0-2.93-3.69-2.6-5.64-2.82l-16.48-1.31c-6-.43-12-1-18-1.41-2.28-.22-5.54-1.2-7.38.44C163.12,293.72,165.07,294.59,165.83,293.94Z"
                style="fill: rgb(189, 189, 189);" />
            <path
                d="M129,330.31l57.1,6.9a2.66,2.66,0,0,0,2.28-1c3.9-5,20.17-25.66,26.35-35.33a2.93,2.93,0,0,0-2.38-4.57l-27.85,36Z"
                style="fill: rgb(189, 189, 189);" />
            <path
                d="M23.76,270.14c-.11,1.08-3.9,1.74-8.46,1.41-2.17-.11-5.1,0-6.51-.44a1.92,1.92,0,0,1-1.62-2.17c.11-1.09,7.26-1.3,11.82-1S23.87,268.94,23.76,270.14Z"
                style="fill: rgb(189, 189, 189);" />
            <path
                d="M236.33,288.72c0,.44-1.52.66-3.37.55a17.79,17.79,0,0,1-2.6-.22.81.81,0,0,1-.65-.87c0-.43,2.82-.43,4.66-.33S236.33,288.29,236.33,288.72Z"
                style="fill: rgb(189, 189, 189);" />
            <path
                d="M231.66,288.51a1.49,1.49,0,0,1-1.52-.33,1.89,1.89,0,0,1-.32-1.09,1.58,1.58,0,0,1,.22-1,1.88,1.88,0,0,1,1.62-.87,3.2,3.2,0,0,1,2,.65,2,2,0,0,1,.76,1.85.9.9,0,0,1-.21.43.4.4,0,0,1-.33.11,4,4,0,0,1-1.19.11"
                style="fill: rgb(81, 79, 105);" />
            <path
                d="M231.66,287.75c-.54,0-1.19.1-1.19-.66s.65-.87,1.19-.87a2.47,2.47,0,0,1,1.52.44c.22.11.65.54.54.87s-.65.22-1,.22c-.87-.11-.87,1.52-.11,1.63a2.05,2.05,0,0,0,2-.44,2.14,2.14,0,0,0,.22-1.95,3.3,3.3,0,0,0-3.26-2.29,2.31,2.31,0,0,0-2.27,2.61,2.06,2.06,0,0,0,2.6,2.18C232.64,289.27,232.42,287.64,231.66,287.75Z"
                style="fill: rgb(189, 189, 189);" />
            <path
                d="M232.64,286.12a2.55,2.55,0,0,1,.11,1c-.11.22-.22.87,0,.87a6,6,0,0,0,1.41,0,7.39,7.39,0,0,0-.22-1.41A6,6,0,0,0,232.64,286.12Z"
                style="fill: rgb(189, 189, 189);" />
            <path
                d="M7.17,272.85c0,.44-1.52.66-3.37.55a17.79,17.79,0,0,1-2.6-.22.81.81,0,0,1-.65-.87c0-.43,2.82-.43,4.66-.33S7.17,272.42,7.17,272.85Z"
                style="fill: rgb(189, 189, 189);" />
            <path
                d="M2.5,272.75A1.51,1.51,0,0,1,1,272.42a1.83,1.83,0,0,1-.33-1.09,1.62,1.62,0,0,1,.22-1,1.9,1.9,0,0,1,1.62-.87,3.26,3.26,0,0,1,2,.66A2.08,2.08,0,0,1,5.22,272a.83.83,0,0,1-.22.44.4.4,0,0,1-.33.11,4.74,4.74,0,0,1-1.19.11"
                style="fill: rgb(81, 79, 105);" />
            <path
                d="M2.4,271.88c-.55,0-1.2.1-1.2-.66s.65-.87,1.2-.87a2.44,2.44,0,0,1,1.51.44c.22.11.65.54.55.87s-.66.22-1,.22c-.87-.11-.87,1.52-.11,1.63a2.1,2.1,0,0,0,2-.44,2.1,2.1,0,0,0,.22-2,3.29,3.29,0,0,0-3.25-2.28A2.31,2.31,0,0,0,0,271.44a2,2,0,0,0,2.6,2.17C3.37,273.51,3.26,271.88,2.4,271.88Z"
                style="fill: rgb(189, 189, 189);" />
            <path
                d="M3.48,270.24s.22.77.11,1-.22.87,0,.87a6,6,0,0,0,1.41,0,7.39,7.39,0,0,0-.22-1.41A9.07,9.07,0,0,0,3.48,270.24Z"
                style="fill: rgb(189, 189, 189);" />
            <path
                d="M282.09,309.05c0,.65-2.27,1-4.88.76a19.49,19.49,0,0,1-3.79-.32c-1-.33-1-.87-1-1.2,0-.65,4.23-.76,6.94-.54S282.09,308.4,282.09,309.05Z"
                style="fill: rgb(189, 189, 189);" />
            <path
                d="M275.26,308.83a2.69,2.69,0,0,1-2.28-.43,2.65,2.65,0,0,1-.54-1.52,3.21,3.21,0,0,1,.22-1.42,3,3,0,0,1,2.38-1.3,4.46,4.46,0,0,1,2.82,1,3.25,3.25,0,0,1,1.09,2.72,1,1,0,0,1-.33.65c-.11.11-.21.11-.43.22a4.72,4.72,0,0,1-1.74.1"
                style="fill: rgb(81, 79, 105);" />
            <path
                d="M275.15,308.07c-1.08.11-2.17,0-2.06-1.41,0-1.09,1-1.52,2-1.63a3.11,3.11,0,0,1,2.39.65c.43.33,1.08,1,1,1.52-.11.87-1.2.76-1.74.76-.87-.1-.87,1.53-.11,1.64s2.06.21,2.71-.55a2.87,2.87,0,0,0,.33-2.5,4.34,4.34,0,0,0-4.45-3A3.32,3.32,0,0,0,271.9,307c0,2.17,1.41,3,3.47,2.93C276.13,309.6,275.91,308,275.15,308.07Z"
                style="fill: rgb(189, 189, 189);" />
            <path
                d="M276.56,305.25s.44,1.08.22,1.52-.33,1.19,0,1.3a12.71,12.71,0,0,0,2.06,0,21.1,21.1,0,0,0-.33-2.17C278.51,305.68,276.56,305.25,276.56,305.25Z"
                style="fill: rgb(189, 189, 189);" />
        </g>
    </g>
</svg>