<svg xmlns="http://www.w3.org/2000/svg" xmlns:xlink="http://www.w3.org/1999/xlink" width="40" zoomAndPan="magnify" viewBox="0 0 30 30.000001" height="40" preserveAspectRatio="xMidYMid meet" version="1.0"><defs><clipPath id="7f8b0ad180"><path d="M 0.484375 9.109375 L 29.515625 9.109375 L 29.515625 19.996094 L 0.484375 19.996094 Z M 0.484375 9.109375 " clip-rule="nonzero"/></clipPath></defs><g clip-path="url(#7f8b0ad180)"><path fill="#ffffff" d="M 26.140625 14.988281 C 22.207031 13.921875 19.257812 14.824219 17.328125 15.960938 C 19.96875 13.273438 24.003906 12.390625 25.292969 12.171875 Z M 21.488281 9.121094 L 22.597656 11.769531 C 20.503906 12.421875 17.773438 13.683594 15.921875 16.007812 C 17.09375 11.9375 20.292969 9.792969 21.488281 9.121094 Z M 8.496094 9.121094 C 9.691406 9.792969 12.894531 11.929688 14.0625 16.015625 C 12.214844 13.691406 9.480469 12.429688 7.386719 11.777344 Z M 4.691406 12.171875 C 5.980469 12.390625 10.015625 13.273438 12.660156 15.960938 C 10.726562 14.824219 7.78125 13.921875 3.84375 14.988281 Z M 16.691406 19.90625 L 13.292969 19.90625 C 12.546875 18.9375 9.3125 15.835938 0.484375 19.511719 L 1.246094 17.042969 C 10.054688 12.769531 14.402344 18.636719 14.585938 18.894531 C 14.59375 18.902344 14.601562 18.902344 14.605469 18.910156 C 14.613281 18.921875 14.621094 18.9375 14.636719 18.945312 C 14.644531 18.953125 14.644531 18.953125 14.644531 18.960938 C 14.660156 18.976562 14.675781 18.984375 14.699219 18.992188 C 14.714844 19 14.726562 19.015625 14.742188 19.023438 C 14.757812 19.027344 14.773438 19.042969 14.796875 19.050781 C 14.804688 19.050781 14.8125 19.058594 14.8125 19.058594 C 14.839844 19.074219 14.878906 19.074219 14.917969 19.082031 C 14.941406 19.082031 14.953125 19.097656 14.976562 19.097656 C 14.984375 19.097656 14.992188 19.097656 15 19.097656 C 15.007812 19.097656 15.015625 19.097656 15.023438 19.097656 C 15.046875 19.097656 15.058594 19.089844 15.082031 19.082031 C 15.121094 19.074219 15.152344 19.074219 15.1875 19.058594 C 15.195312 19.058594 15.203125 19.050781 15.203125 19.050781 C 15.226562 19.042969 15.242188 19.027344 15.257812 19.023438 C 15.273438 19.015625 15.285156 19.007812 15.300781 18.992188 C 15.316406 18.976562 15.339844 18.96875 15.355469 18.960938 C 15.363281 18.953125 15.363281 18.953125 15.363281 18.945312 C 15.378906 18.929688 15.386719 18.921875 15.394531 18.910156 C 15.398438 18.902344 15.40625 18.902344 15.414062 18.894531 C 15.597656 18.636719 19.945312 12.769531 28.753906 17.042969 L 29.515625 19.511719 C 20.679688 15.835938 17.441406 18.945312 16.691406 19.90625 Z M 16.691406 19.90625 " fill-opacity="1" fill-rule="nonzero"/></g></svg>