<svg xmlns="http://www.w3.org/2000/svg" xmlns:xlink="http://www.w3.org/1999/xlink" width="40" zoomAndPan="magnify" viewBox="0 0 30 30.000001" height="40" preserveAspectRatio="xMidYMid meet" version="1.0"><path fill="#f4f6fc" d="M 4.113281 10.886719 L 17.570312 10.886719 C 18.109375 12.972656 20.003906 14.515625 22.257812 14.515625 C 24.929688 14.515625 27.097656 12.351562 27.097656 9.675781 C 27.097656 7.003906 24.929688 4.839844 22.257812 4.839844 C 20.003906 4.839844 18.109375 6.378906 17.570312 8.46875 L 4.113281 8.46875 C 3.445312 8.46875 2.902344 9.007812 2.902344 9.675781 C 2.902344 10.34375 3.445312 10.886719 4.113281 10.886719 Z M 4.113281 10.886719 " fill-opacity="1" fill-rule="evenodd"/><path fill="#f4f6fc" d="M 25.886719 18.144531 L 12.429688 18.144531 C 11.890625 16.058594 9.996094 14.515625 7.742188 14.515625 C 5.070312 14.515625 2.902344 16.683594 2.902344 19.355469 C 2.902344 22.027344 5.070312 24.195312 7.742188 24.195312 C 9.996094 24.195312 11.890625 22.652344 12.429688 20.566406 L 25.886719 20.566406 C 26.554688 20.566406 27.097656 20.023438 27.097656 19.355469 C 27.097656 18.6875 26.554688 18.144531 25.886719 18.144531 Z M 25.886719 18.144531 " fill-opacity="1" fill-rule="evenodd"/></svg>