<svg xmlns="http://www.w3.org/2000/svg" xmlns:xlink="http://www.w3.org/1999/xlink" width="40" zoomAndPan="magnify" viewBox="0 0 30 30.000001" height="40" preserveAspectRatio="xMidYMid meet" version="1.0"><defs><clipPath id="2a09b64dfd"><path d="M 13 23 L 19 23 L 19 26.128906 L 13 26.128906 Z M 13 23 " clip-rule="nonzero"/></clipPath><clipPath id="8b460f68d3"><path d="M 19 23 L 26.613281 23 L 26.613281 26.128906 L 19 26.128906 Z M 19 23 " clip-rule="nonzero"/></clipPath><clipPath id="2377fece1d"><path d="M 3.386719 17 L 13 17 L 13 26.128906 L 3.386719 26.128906 Z M 3.386719 17 " clip-rule="nonzero"/></clipPath><clipPath id="88ef94a7ab"><path d="M 7 3 L 26.613281 3 L 26.613281 22 L 7 22 Z M 7 3 " clip-rule="nonzero"/></clipPath></defs><g clip-path="url(#2a09b64dfd)"><path fill="#ffffff" d="M 17.300781 26.070312 C 17.933594 26.070312 18.449219 25.558594 18.449219 24.921875 C 18.449219 24.285156 17.933594 23.773438 17.300781 23.773438 L 15 23.773438 C 14.363281 23.773438 13.851562 24.285156 13.851562 24.921875 C 13.851562 25.558594 14.363281 26.070312 15 26.070312 Z M 17.300781 26.070312 " fill-opacity="1" fill-rule="nonzero"/></g><g clip-path="url(#8b460f68d3)"><path fill="#ffffff" d="M 25.347656 23.773438 L 20.75 23.773438 C 20.113281 23.773438 19.597656 24.285156 19.597656 24.921875 C 19.597656 25.558594 20.113281 26.070312 20.75 26.070312 L 25.347656 26.070312 C 25.984375 26.070312 26.496094 25.558594 26.496094 24.921875 C 26.496094 24.285156 25.984375 23.773438 25.347656 23.773438 Z M 25.347656 23.773438 " fill-opacity="1" fill-rule="nonzero"/></g><g clip-path="url(#2377fece1d)"><path fill="#ffffff" d="M 6.5625 17.578125 L 12.039062 23.058594 L 5.097656 26.03125 C 4.949219 26.097656 4.796875 26.121094 4.640625 26.128906 C 4.339844 26.121094 4.046875 26.007812 3.828125 25.789062 C 3.496094 25.457031 3.398438 24.953125 3.585938 24.519531 Z M 6.5625 17.578125 " fill-opacity="1" fill-rule="nonzero"/></g><g clip-path="url(#88ef94a7ab)"><path fill="#ffffff" d="M 26.15625 9.691406 L 14.039062 21.804688 L 7.8125 15.578125 L 19.925781 3.464844 C 20.375 3.015625 21.105469 3.015625 21.554688 3.464844 L 26.15625 8.066406 C 26.601562 8.511719 26.601562 9.246094 26.15625 9.691406 Z M 26.15625 9.691406 " fill-opacity="1" fill-rule="nonzero"/></g></svg>