<svg xmlns="http://www.w3.org/2000/svg" xmlns:xlink="http://www.w3.org/1999/xlink" width="40" zoomAndPan="magnify" viewBox="0 0 30 30.000001" height="40" preserveAspectRatio="xMidYMid meet" version="1.0"><defs><clipPath id="9773e7573f"><path d="M 7 0.433594 L 9 0.433594 L 9 4 L 7 4 Z M 7 0.433594 " clip-rule="nonzero"/></clipPath><clipPath id="52ebd49962"><path d="M 10 0.433594 L 12 0.433594 L 12 4 L 10 4 Z M 10 0.433594 " clip-rule="nonzero"/></clipPath><clipPath id="dad056b4b6"><path d="M 14 0.433594 L 16 0.433594 L 16 4 L 14 4 Z M 14 0.433594 " clip-rule="nonzero"/></clipPath><clipPath id="98d7ef8839"><path d="M 18 0.433594 L 20 0.433594 L 20 4 L 18 4 Z M 18 0.433594 " clip-rule="nonzero"/></clipPath><clipPath id="e30688193f"><path d="M 21 0.433594 L 23 0.433594 L 23 4 L 21 4 Z M 21 0.433594 " clip-rule="nonzero"/></clipPath><clipPath id="08907532da"><path d="M 26 6 L 29.515625 6 L 29.515625 8 L 26 8 Z M 26 6 " clip-rule="nonzero"/></clipPath><clipPath id="58fdb89e75"><path d="M 26 9 L 29.515625 9 L 29.515625 11 L 26 11 Z M 26 9 " clip-rule="nonzero"/></clipPath><clipPath id="8b841d8151"><path d="M 26 13 L 29.515625 13 L 29.515625 15 L 26 15 Z M 26 13 " clip-rule="nonzero"/></clipPath><clipPath id="3b3a5cc955"><path d="M 26 17 L 29.515625 17 L 29.515625 19 L 26 19 Z M 26 17 " clip-rule="nonzero"/></clipPath><clipPath id="e86b0f9bd9"><path d="M 26 20 L 29.515625 20 L 29.515625 22 L 26 22 Z M 26 20 " clip-rule="nonzero"/></clipPath><clipPath id="a0a8042c7c"><path d="M 0.484375 6 L 4 6 L 4 8 L 0.484375 8 Z M 0.484375 6 " clip-rule="nonzero"/></clipPath><clipPath id="df2a75557e"><path d="M 0.484375 9 L 4 9 L 4 11 L 0.484375 11 Z M 0.484375 9 " clip-rule="nonzero"/></clipPath><clipPath id="18e966de6b"><path d="M 0.484375 13 L 4 13 L 4 15 L 0.484375 15 Z M 0.484375 13 " clip-rule="nonzero"/></clipPath><clipPath id="14a098cbeb"><path d="M 0.484375 17 L 4 17 L 4 19 L 0.484375 19 Z M 0.484375 17 " clip-rule="nonzero"/></clipPath><clipPath id="5793e8f44d"><path d="M 0.484375 20 L 4 20 L 4 22 L 0.484375 22 Z M 0.484375 20 " clip-rule="nonzero"/></clipPath><clipPath id="96d21330df"><path d="M 7 25 L 9 25 L 9 28.742188 L 7 28.742188 Z M 7 25 " clip-rule="nonzero"/></clipPath><clipPath id="1799ab6cd2"><path d="M 10 25 L 12 25 L 12 28.742188 L 10 28.742188 Z M 10 25 " clip-rule="nonzero"/></clipPath><clipPath id="39acdd4f8f"><path d="M 14 25 L 16 25 L 16 28.742188 L 14 28.742188 Z M 14 25 " clip-rule="nonzero"/></clipPath><clipPath id="094fd55cfa"><path d="M 18 25 L 20 25 L 20 28.742188 L 18 28.742188 Z M 18 25 " clip-rule="nonzero"/></clipPath><clipPath id="a00398a75e"><path d="M 21 25 L 23 25 L 23 28.742188 L 21 28.742188 Z M 21 25 " clip-rule="nonzero"/></clipPath></defs><path fill="#ffffff" d="M 22.078125 24.699219 L 7.960938 24.699219 C 6.238281 24.699219 4.832031 23.296875 4.832031 21.570312 L 4.832031 7.453125 C 4.832031 5.730469 6.234375 4.332031 7.960938 4.332031 L 22.078125 4.332031 C 23.800781 4.332031 25.203125 5.730469 25.203125 7.453125 L 25.203125 21.570312 C 25.203125 23.296875 23.800781 24.699219 22.078125 24.699219 Z M 7.960938 5.359375 C 6.808594 5.359375 5.867188 6.300781 5.867188 7.453125 L 5.867188 21.570312 C 5.867188 22.726562 6.808594 23.667969 7.960938 23.667969 L 22.078125 23.667969 C 23.234375 23.667969 24.175781 22.726562 24.175781 21.570312 L 24.175781 7.453125 C 24.175781 6.300781 23.234375 5.359375 22.078125 5.359375 Z M 7.960938 5.359375 " fill-opacity="1" fill-rule="nonzero"/><path fill="#ffffff" d="M 17.066406 18.453125 L 15.15625 18.453125 L 14.671875 17.117188 L 11.296875 17.117188 L 10.800781 18.453125 L 8.890625 18.453125 L 11.933594 10.574219 L 14.03125 10.574219 Z M 14.207031 15.644531 L 12.976562 12.253906 L 11.753906 15.644531 Z M 14.207031 15.644531 " fill-opacity="1" fill-rule="nonzero"/><path fill="#ffffff" d="M 17.800781 10.574219 L 19.476562 10.574219 L 19.476562 18.453125 L 17.800781 18.453125 Z M 17.800781 10.574219 " fill-opacity="1" fill-rule="nonzero"/><g clip-path="url(#9773e7573f)"><path fill="#ffffff" d="M 7.785156 3.230469 C 7.5 3.230469 7.273438 3 7.273438 2.71875 L 7.273438 0.957031 C 7.273438 0.675781 7.5 0.445312 7.785156 0.445312 C 8.070312 0.445312 8.300781 0.675781 8.300781 0.957031 L 8.300781 2.71875 C 8.300781 3 8.070312 3.230469 7.785156 3.230469 Z M 7.785156 3.230469 " fill-opacity="1" fill-rule="nonzero"/></g><g clip-path="url(#52ebd49962)"><path fill="#ffffff" d="M 11.375 3.230469 C 11.089844 3.230469 10.859375 3 10.859375 2.71875 L 10.859375 0.957031 C 10.859375 0.675781 11.089844 0.445312 11.375 0.445312 C 11.65625 0.445312 11.886719 0.675781 11.886719 0.957031 L 11.886719 2.71875 C 11.886719 3 11.65625 3.230469 11.375 3.230469 Z M 11.375 3.230469 " fill-opacity="1" fill-rule="nonzero"/></g><g clip-path="url(#dad056b4b6)"><path fill="#ffffff" d="M 14.960938 3.230469 C 14.675781 3.230469 14.449219 3 14.449219 2.71875 L 14.449219 0.957031 C 14.449219 0.675781 14.675781 0.445312 14.960938 0.445312 C 15.246094 0.445312 15.476562 0.675781 15.476562 0.957031 L 15.476562 2.71875 C 15.480469 3 15.246094 3.230469 14.960938 3.230469 Z M 14.960938 3.230469 " fill-opacity="1" fill-rule="nonzero"/></g><g clip-path="url(#98d7ef8839)"><path fill="#ffffff" d="M 18.554688 3.230469 C 18.269531 3.230469 18.039062 3 18.039062 2.71875 L 18.039062 0.957031 C 18.039062 0.675781 18.269531 0.445312 18.554688 0.445312 C 18.839844 0.445312 19.066406 0.675781 19.066406 0.957031 L 19.066406 2.71875 C 19.066406 3 18.839844 3.230469 18.554688 3.230469 Z M 18.554688 3.230469 " fill-opacity="1" fill-rule="nonzero"/></g><g clip-path="url(#e30688193f)"><path fill="#ffffff" d="M 22.140625 3.230469 C 21.859375 3.230469 21.628906 3 21.628906 2.71875 L 21.628906 0.957031 C 21.628906 0.675781 21.859375 0.445312 22.140625 0.445312 C 22.425781 0.445312 22.65625 0.675781 22.65625 0.957031 L 22.65625 2.71875 C 22.65625 3 22.425781 3.230469 22.140625 3.230469 Z M 22.140625 3.230469 " fill-opacity="1" fill-rule="nonzero"/></g><g clip-path="url(#08907532da)"><path fill="#ffffff" d="M 28.996094 7.28125 L 27.238281 7.28125 C 26.957031 7.28125 26.726562 7.054688 26.726562 6.769531 C 26.726562 6.484375 26.957031 6.253906 27.238281 6.253906 L 28.996094 6.253906 C 29.28125 6.253906 29.511719 6.484375 29.511719 6.769531 C 29.511719 7.054688 29.28125 7.28125 28.996094 7.28125 Z M 28.996094 7.28125 " fill-opacity="1" fill-rule="nonzero"/></g><g clip-path="url(#58fdb89e75)"><path fill="#ffffff" d="M 28.996094 10.871094 L 27.238281 10.871094 C 26.957031 10.871094 26.726562 10.640625 26.726562 10.355469 C 26.726562 10.074219 26.957031 9.84375 27.238281 9.84375 L 28.996094 9.84375 C 29.28125 9.84375 29.511719 10.074219 29.511719 10.355469 C 29.515625 10.640625 29.28125 10.871094 28.996094 10.871094 Z M 28.996094 10.871094 " fill-opacity="1" fill-rule="nonzero"/></g><g clip-path="url(#8b841d8151)"><path fill="#ffffff" d="M 28.996094 14.464844 L 27.238281 14.464844 C 26.957031 14.464844 26.726562 14.234375 26.726562 13.949219 C 26.726562 13.664062 26.957031 13.433594 27.238281 13.433594 L 28.996094 13.433594 C 29.28125 13.433594 29.511719 13.664062 29.511719 13.949219 C 29.515625 14.234375 29.28125 14.464844 28.996094 14.464844 Z M 28.996094 14.464844 " fill-opacity="1" fill-rule="nonzero"/></g><g clip-path="url(#3b3a5cc955)"><path fill="#ffffff" d="M 28.996094 18.050781 L 27.238281 18.050781 C 26.957031 18.050781 26.726562 17.820312 26.726562 17.539062 C 26.726562 17.253906 26.957031 17.023438 27.238281 17.023438 L 28.996094 17.023438 C 29.28125 17.023438 29.511719 17.253906 29.511719 17.539062 C 29.515625 17.820312 29.28125 18.050781 28.996094 18.050781 Z M 28.996094 18.050781 " fill-opacity="1" fill-rule="nonzero"/></g><g clip-path="url(#e86b0f9bd9)"><path fill="#ffffff" d="M 28.996094 21.644531 L 27.238281 21.644531 C 26.957031 21.644531 26.726562 21.414062 26.726562 21.128906 C 26.726562 20.84375 26.957031 20.617188 27.238281 20.617188 L 28.996094 20.617188 C 29.28125 20.617188 29.511719 20.84375 29.511719 21.128906 C 29.515625 21.410156 29.28125 21.644531 28.996094 21.644531 Z M 28.996094 21.644531 " fill-opacity="1" fill-rule="nonzero"/></g><g clip-path="url(#a0a8042c7c)"><path fill="#ffffff" d="M 2.753906 7.28125 L 0.996094 7.28125 C 0.714844 7.28125 0.484375 7.054688 0.484375 6.769531 C 0.484375 6.484375 0.714844 6.253906 0.996094 6.253906 L 2.753906 6.253906 C 3.039062 6.253906 3.269531 6.484375 3.269531 6.769531 C 3.269531 7.054688 3.039062 7.28125 2.753906 7.28125 Z M 2.753906 7.28125 " fill-opacity="1" fill-rule="nonzero"/></g><g clip-path="url(#df2a75557e)"><path fill="#ffffff" d="M 2.753906 10.871094 L 0.996094 10.871094 C 0.714844 10.871094 0.484375 10.640625 0.484375 10.355469 C 0.484375 10.074219 0.714844 9.84375 0.996094 9.84375 L 2.753906 9.84375 C 3.039062 9.84375 3.269531 10.074219 3.269531 10.355469 C 3.269531 10.640625 3.039062 10.871094 2.753906 10.871094 Z M 2.753906 10.871094 " fill-opacity="1" fill-rule="nonzero"/></g><g clip-path="url(#18e966de6b)"><path fill="#ffffff" d="M 2.753906 14.464844 L 0.996094 14.464844 C 0.714844 14.464844 0.484375 14.234375 0.484375 13.949219 C 0.484375 13.664062 0.714844 13.433594 0.996094 13.433594 L 2.753906 13.433594 C 3.039062 13.433594 3.269531 13.664062 3.269531 13.949219 C 3.269531 14.234375 3.039062 14.464844 2.753906 14.464844 Z M 2.753906 14.464844 " fill-opacity="1" fill-rule="nonzero"/></g><g clip-path="url(#14a098cbeb)"><path fill="#ffffff" d="M 2.753906 18.050781 L 0.996094 18.050781 C 0.714844 18.050781 0.484375 17.820312 0.484375 17.539062 C 0.484375 17.253906 0.714844 17.023438 0.996094 17.023438 L 2.753906 17.023438 C 3.039062 17.023438 3.269531 17.253906 3.269531 17.539062 C 3.269531 17.820312 3.039062 18.050781 2.753906 18.050781 Z M 2.753906 18.050781 " fill-opacity="1" fill-rule="nonzero"/></g><g clip-path="url(#5793e8f44d)"><path fill="#ffffff" d="M 2.753906 21.644531 L 0.996094 21.644531 C 0.714844 21.644531 0.484375 21.414062 0.484375 21.128906 C 0.484375 20.84375 0.714844 20.617188 0.996094 20.617188 L 2.753906 20.617188 C 3.039062 20.617188 3.269531 20.84375 3.269531 21.128906 C 3.269531 21.410156 3.039062 21.644531 2.753906 21.644531 Z M 2.753906 21.644531 " fill-opacity="1" fill-rule="nonzero"/></g><g clip-path="url(#96d21330df)"><path fill="#ffffff" d="M 7.785156 28.585938 C 7.5 28.585938 7.273438 28.355469 7.273438 28.070312 L 7.273438 26.3125 C 7.273438 26.027344 7.5 25.800781 7.785156 25.800781 C 8.070312 25.800781 8.300781 26.027344 8.300781 26.3125 L 8.300781 28.070312 C 8.300781 28.355469 8.070312 28.585938 7.785156 28.585938 Z M 7.785156 28.585938 " fill-opacity="1" fill-rule="nonzero"/></g><g clip-path="url(#1799ab6cd2)"><path fill="#ffffff" d="M 11.375 28.585938 C 11.089844 28.585938 10.859375 28.355469 10.859375 28.070312 L 10.859375 26.3125 C 10.859375 26.027344 11.089844 25.800781 11.375 25.800781 C 11.65625 25.800781 11.886719 26.027344 11.886719 26.3125 L 11.886719 28.070312 C 11.886719 28.355469 11.65625 28.585938 11.375 28.585938 Z M 11.375 28.585938 " fill-opacity="1" fill-rule="nonzero"/></g><g clip-path="url(#39acdd4f8f)"><path fill="#ffffff" d="M 14.960938 28.585938 C 14.675781 28.585938 14.449219 28.355469 14.449219 28.070312 L 14.449219 26.3125 C 14.449219 26.027344 14.675781 25.800781 14.960938 25.800781 C 15.246094 25.800781 15.476562 26.027344 15.476562 26.3125 L 15.476562 28.070312 C 15.480469 28.355469 15.246094 28.585938 14.960938 28.585938 Z M 14.960938 28.585938 " fill-opacity="1" fill-rule="nonzero"/></g><g clip-path="url(#094fd55cfa)"><path fill="#ffffff" d="M 18.554688 28.585938 C 18.269531 28.585938 18.039062 28.355469 18.039062 28.070312 L 18.039062 26.3125 C 18.039062 26.027344 18.269531 25.800781 18.554688 25.800781 C 18.839844 25.800781 19.066406 26.027344 19.066406 26.3125 L 19.066406 28.070312 C 19.066406 28.355469 18.839844 28.585938 18.554688 28.585938 Z M 18.554688 28.585938 " fill-opacity="1" fill-rule="nonzero"/></g><g clip-path="url(#a00398a75e)"><path fill="#ffffff" d="M 22.140625 28.585938 C 21.859375 28.585938 21.628906 28.355469 21.628906 28.070312 L 21.628906 26.3125 C 21.628906 26.027344 21.859375 25.800781 22.140625 25.800781 C 22.425781 25.800781 22.65625 26.027344 22.65625 26.3125 L 22.65625 28.070312 C 22.65625 28.355469 22.425781 28.585938 22.140625 28.585938 Z M 22.140625 28.585938 " fill-opacity="1" fill-rule="nonzero"/></g></svg>