<svg xmlns="http://www.w3.org/2000/svg" xmlns:xlink="http://www.w3.org/1999/xlink" width="40" zoomAndPan="magnify" viewBox="0 0 30 30.000001" height="40" preserveAspectRatio="xMidYMid meet" version="1.0"><defs><clipPath id="2cda9434f3"><path d="M 3.386719 2.902344 L 26.613281 2.902344 L 26.613281 26.128906 L 3.386719 26.128906 Z M 3.386719 2.902344 " clip-rule="nonzero"/></clipPath></defs><g clip-path="url(#2cda9434f3)"><path fill="#ffffff" d="M 26.613281 21.152344 C 26.613281 21.382812 26.53125 21.578125 26.371094 21.738281 C 26.207031 21.902344 26.011719 21.980469 25.785156 21.980469 L 22.464844 21.980469 L 22.464844 25.300781 C 22.464844 25.527344 22.382812 25.722656 22.222656 25.886719 C 22.058594 26.046875 21.863281 26.128906 21.636719 26.128906 C 21.40625 26.128906 21.210938 26.046875 21.050781 25.886719 C 20.886719 25.722656 20.804688 25.527344 20.804688 25.300781 L 20.804688 21.980469 L 10.023438 21.980469 C 9.691406 21.980469 9.375 21.917969 9.070312 21.792969 C 8.765625 21.664062 8.496094 21.484375 8.265625 21.25 C 8.03125 21.019531 7.851562 20.75 7.726562 20.445312 C 7.597656 20.140625 7.535156 19.824219 7.535156 19.492188 L 7.535156 8.710938 L 4.214844 8.710938 C 3.988281 8.710938 3.792969 8.628906 3.628906 8.464844 C 3.46875 8.304688 3.386719 8.109375 3.386719 7.878906 C 3.386719 7.652344 3.46875 7.457031 3.628906 7.292969 C 3.792969 7.132812 3.988281 7.050781 4.214844 7.050781 L 7.535156 7.050781 L 7.535156 3.734375 C 7.535156 3.503906 7.617188 3.308594 7.777344 3.144531 C 7.941406 2.984375 8.136719 2.902344 8.363281 2.902344 C 8.59375 2.902344 8.789062 2.984375 8.949219 3.144531 C 9.113281 3.308594 9.195312 3.503906 9.195312 3.734375 L 9.195312 19.492188 C 9.195312 19.722656 9.273438 19.917969 9.4375 20.078125 C 9.597656 20.242188 9.792969 20.324219 10.023438 20.324219 L 25.785156 20.324219 C 26.011719 20.324219 26.207031 20.402344 26.371094 20.566406 C 26.53125 20.726562 26.613281 20.921875 26.613281 21.152344 Z M 12.511719 11.199219 C 12.511719 11.425781 12.59375 11.621094 12.753906 11.785156 C 12.917969 11.945312 13.113281 12.027344 13.339844 12.027344 C 13.570312 12.027344 13.765625 11.945312 13.925781 11.785156 C 14.089844 11.621094 14.171875 11.425781 14.171875 11.199219 C 14.171875 10.96875 14.089844 10.773438 13.925781 10.613281 C 13.765625 10.449219 13.570312 10.367188 13.339844 10.367188 C 13.113281 10.367188 12.917969 10.449219 12.753906 10.613281 C 12.59375 10.773438 12.511719 10.96875 12.511719 11.199219 Z M 19.148438 14.171875 L 17.246094 12.269531 C 17.082031 12.109375 16.886719 12.027344 16.660156 12.027344 C 16.429688 12.027344 16.234375 12.109375 16.074219 12.269531 L 13.339844 15.003906 L 12.269531 13.929688 C 12.105469 13.769531 11.910156 13.6875 11.683594 13.6875 C 11.453125 13.6875 11.257812 13.769531 11.09375 13.929688 L 10.851562 14.171875 L 10.851562 18.664062 L 19.148438 18.664062 Z M 20.804688 9.539062 L 20.804688 18.664062 L 22.464844 18.664062 L 22.464844 9.539062 C 22.464844 9.210938 22.402344 8.890625 22.273438 8.589844 C 22.148438 8.285156 21.96875 8.015625 21.734375 7.78125 C 21.5 7.546875 21.234375 7.367188 20.929688 7.242188 C 20.625 7.117188 20.308594 7.050781 19.976562 7.050781 L 10.851562 7.050781 L 10.851562 8.710938 L 19.976562 8.710938 C 20.207031 8.710938 20.402344 8.792969 20.5625 8.953125 C 20.722656 9.113281 20.804688 9.308594 20.804688 9.539062 Z M 20.804688 9.539062 " fill-opacity="1" fill-rule="nonzero"/></g></svg>